<svg width="601" height="310" viewBox="0 0 601 310" fill="none" xmlns="http://www.w3.org/2000/svg">
<line x1="105.013" y1="0.85083" x2="105.013" y2="309.829" stroke="white" stroke-opacity="0.2" stroke-width="0.545139"/>
<path d="M401.715 176.931L401.715 309.945" stroke="url(#paint0_linear_40_285)" stroke-opacity="0.2" stroke-width="0.545139"/>
<path d="M401.715 0.850952L401.715 44.4621" stroke="url(#paint1_linear_40_285)" stroke-opacity="0.2" stroke-width="0.545139"/>
<path d="M302.749 309.945L302.749 220.999" stroke="url(#paint2_linear_40_285)" stroke-opacity="0.2" stroke-width="0.545139"/>
<path d="M302.498 0.850952L302.498 44.4621" stroke="url(#paint3_linear_40_285)" stroke-opacity="0.2" stroke-width="0.545139"/>
<path d="M203.831 176.931L203.831 309.945" stroke="url(#paint4_linear_40_285)" stroke-opacity="0.2" stroke-width="0.545139"/>
<path d="M203.831 0.850952L203.831 44.4621" stroke="url(#paint5_linear_40_285)" stroke-opacity="0.2" stroke-width="0.545139"/>
<line x1="500.901" y1="0.85083" x2="500.901" y2="309.829" stroke="white" stroke-opacity="0.2" stroke-width="0.545139"/>
<line x1="599.872" y1="0.85083" x2="599.872" y2="309.829" stroke="white" stroke-opacity="0.2" stroke-width="0.545139"/>
<line x1="5.67101" y1="0.85083" x2="5.67099" y2="309.829" stroke="white" stroke-opacity="0.2" stroke-width="0.545139"/>
<line x1="5.76953" y1="220.812" x2="597.75" y2="220.812" stroke="white" stroke-opacity="0.2" stroke-width="0.545139"/>
<line x1="5.94312" y1="132.502" x2="105.158" y2="132.502" stroke="white" stroke-opacity="0.2" stroke-width="0.545139"/>
<line x1="500.384" y1="132.502" x2="597.964" y2="132.502" stroke="white" stroke-opacity="0.2" stroke-width="0.545139"/>
<path fill-rule="evenodd" clip-rule="evenodd" d="M501.204 53.4236C501.187 48.7627 497.411 44.9896 492.754 44.9896C497.421 44.9896 501.204 41.1995 501.204 36.5243C501.221 41.1852 504.997 44.9583 509.654 44.9583C504.987 44.9583 501.204 48.7484 501.204 53.4236Z" fill="white"/>
<path fill-rule="evenodd" clip-rule="evenodd" d="M8.94331 185.653C8.92641 180.992 5.14988 177.219 0.493652 177.219C5.16026 177.219 8.94331 173.429 8.94331 168.754C8.96013 173.415 12.7367 177.188 17.393 177.188C12.7263 177.188 8.94331 180.978 8.94331 185.653Z" fill="white"/>
<line x1="501.473" y1="88.8909" x2="597.962" y2="88.8909" stroke="white" stroke-opacity="0.2" stroke-width="0.545139"/>
<line x1="5.94312" y1="88.8909" x2="105.158" y2="88.8909" stroke="white" stroke-opacity="0.2" stroke-width="0.545139"/>
<line x1="5.76953" y1="44.6254" x2="597.75" y2="44.6254" stroke="white" stroke-opacity="0.2" stroke-width="0.545139"/>
<path fill-rule="evenodd" clip-rule="evenodd" d="M402 228C401.986 224.139 398.857 221.013 395 221.013C398.866 221.013 402 217.873 402 214C402.014 217.861 405.143 220.987 409 220.987C405.134 220.987 402 224.127 402 228Z" fill="white"/>
<path fill-rule="evenodd" clip-rule="evenodd" d="M204 51C203.986 47.1388 200.857 44.013 197 44.013C200.866 44.013 204 40.8731 204 37C204.014 40.8612 207.143 43.987 211 43.987C207.134 43.987 204 47.1269 204 51Z" fill="white"/>
<line x1="5.76953" y1="0.578261" x2="597.75" y2="0.578273" stroke="white" stroke-opacity="0.2" stroke-width="0.545139"/>
<line x1="5.76953" y1="264.859" x2="597.75" y2="264.859" stroke="white" stroke-opacity="0.2" stroke-width="0.545139"/>
<defs>
<linearGradient id="paint0_linear_40_285" x1="401.822" y1="140.366" x2="402.037" y2="140.366" gradientUnits="userSpaceOnUse">
<stop stop-color="white"/>
<stop offset="1" stop-color="white" stop-opacity="0"/>
</linearGradient>
<linearGradient id="paint1_linear_40_285" x1="401.718" y1="138.942" x2="401.723" y2="138.942" gradientUnits="userSpaceOnUse">
<stop stop-color="white"/>
<stop offset="1" stop-color="white" stop-opacity="0"/>
</linearGradient>
<linearGradient id="paint2_linear_40_285" x1="302.677" y1="334.396" x2="302.534" y2="334.396" gradientUnits="userSpaceOnUse">
<stop stop-color="white"/>
<stop offset="1" stop-color="white" stop-opacity="0"/>
</linearGradient>
<linearGradient id="paint3_linear_40_285" x1="302.501" y1="138.942" x2="302.506" y2="138.942" gradientUnits="userSpaceOnUse">
<stop stop-color="white"/>
<stop offset="1" stop-color="white" stop-opacity="0"/>
</linearGradient>
<linearGradient id="paint4_linear_40_285" x1="203.938" y1="140.366" x2="204.152" y2="140.366" gradientUnits="userSpaceOnUse">
<stop stop-color="white"/>
<stop offset="1" stop-color="white" stop-opacity="0"/>
</linearGradient>
<linearGradient id="paint5_linear_40_285" x1="203.833" y1="138.942" x2="203.839" y2="138.942" gradientUnits="userSpaceOnUse">
<stop stop-color="white"/>
<stop offset="1" stop-color="white" stop-opacity="0"/>
</linearGradient>
</defs>
</svg>
