<svg width="49" height="48" viewBox="0 0 49 48" fill="none" xmlns="http://www.w3.org/2000/svg">
<path d="M2.3999 40V35.3C2.3999 34.1333 2.6999 33.075 3.2999 32.125C3.8999 31.175 4.73324 30.4666 5.7999 30C8.23324 28.9333 10.4249 28.1666 12.3749 27.7C14.3249 27.2333 16.3332 27 18.3999 27C20.4666 27 22.4666 27.2333 24.3999 27.7C26.3332 28.1666 28.5166 28.9333 30.9499 30C32.0166 30.4666 32.8582 31.175 33.4749 32.125C34.0916 33.075 34.3999 34.1333 34.3999 35.3V40H2.3999ZM37.3999 40V35.3C37.3999 33.2 36.8666 31.475 35.7999 30.125C34.7332 28.775 33.3332 27.6833 31.5999 26.85C33.8999 27.1166 36.0666 27.5083 38.0999 28.025C40.1332 28.5416 41.7832 29.1333 43.0499 29.8C44.1499 30.4333 45.0166 31.2166 45.6499 32.15C46.2832 33.0833 46.5999 34.1333 46.5999 35.3V40H37.3999ZM18.3999 23.95C16.1999 23.95 14.3999 23.25 12.9999 21.85C11.5999 20.45 10.8999 18.65 10.8999 16.45C10.8999 14.25 11.5999 12.45 12.9999 11.05C14.3999 9.64995 16.1999 8.94995 18.3999 8.94995C20.5999 8.94995 22.3999 9.64995 23.7999 11.05C25.1999 12.45 25.8999 14.25 25.8999 16.45C25.8999 18.65 25.1999 20.45 23.7999 21.85C22.3999 23.25 20.5999 23.95 18.3999 23.95ZM36.3999 16.45C36.3999 18.65 35.6999 20.45 34.2999 21.85C32.8999 23.25 31.0999 23.95 28.8999 23.95C28.5332 23.95 28.1249 23.925 27.6749 23.875C27.2249 23.825 26.8166 23.7333 26.4499 23.6C27.2499 22.7666 27.8582 21.7416 28.2749 20.525C28.6916 19.3083 28.8999 17.95 28.8999 16.45C28.8999 14.95 28.6916 13.625 28.2749 12.475C27.8582 11.325 27.2499 10.2666 26.4499 9.29995C26.8166 9.19995 27.2249 9.11662 27.6749 9.04995C28.1249 8.98328 28.5332 8.94995 28.8999 8.94995C31.0999 8.94995 32.8999 9.64995 34.2999 11.05C35.6999 12.45 36.3999 14.25 36.3999 16.45ZM5.3999 37H31.3999V35.3C31.3999 34.7666 31.2416 34.25 30.9249 33.75C30.6082 33.25 30.2166 32.9 29.7499 32.7C27.3499 31.6333 25.3332 30.9166 23.6999 30.55C22.0666 30.1833 20.2999 30 18.3999 30C16.4999 30 14.7249 30.1833 13.0749 30.55C11.4249 30.9166 9.3999 31.6333 6.9999 32.7C6.53324 32.9 6.1499 33.25 5.8499 33.75C5.5499 34.25 5.3999 34.7666 5.3999 35.3V37ZM18.3999 20.95C19.6999 20.95 20.7749 20.525 21.6249 19.675C22.4749 18.825 22.8999 17.75 22.8999 16.45C22.8999 15.15 22.4749 14.075 21.6249 13.225C20.7749 12.375 19.6999 11.95 18.3999 11.95C17.0999 11.95 16.0249 12.375 15.1749 13.225C14.3249 14.075 13.8999 15.15 13.8999 16.45C13.8999 17.75 14.3249 18.825 15.1749 19.675C16.0249 20.525 17.0999 20.95 18.3999 20.95Z" fill="white"/>
</svg>
