<svg width="36" height="34" viewBox="0 0 36 34" fill="none" xmlns="http://www.w3.org/2000/svg">
<path fill-rule="evenodd" clip-rule="evenodd" d="M0.125 6C0.125 2.96243 2.58743 0.5 5.625 0.5H30.375C33.4126 0.5 35.875 2.96243 35.875 6V28C35.875 31.0376 33.4126 33.5 30.375 33.5H5.625C2.58743 33.5 0.125 31.0376 0.125 28V6ZM7.40273 7.77773C7.9397 7.24076 8.8103 7.24076 9.34727 7.77773L13.4723 11.9027C14.0092 12.4397 14.0092 13.3103 13.4723 13.8473L9.34727 17.9723C8.8103 18.5092 7.9397 18.5092 7.40273 17.9723C6.86576 17.4353 6.86576 16.5647 7.40273 16.0277L10.5555 12.875L7.40273 9.72227C6.86576 9.1853 6.86576 8.3147 7.40273 7.77773ZM15.25 15.625C14.4906 15.625 13.875 16.2406 13.875 17C13.875 17.7594 14.4906 18.375 15.25 18.375H20.75C21.5094 18.375 22.125 17.7594 22.125 17C22.125 16.2406 21.5094 15.625 20.75 15.625H15.25Z" fill="white"/>
</svg>
