<svg width="49" height="49" viewBox="0 0 49 49" fill="none" xmlns="http://www.w3.org/2000/svg">
<path d="M14.15 44.55C12.55 44.55 11.2083 44.0007 10.125 42.902C9.04167 41.8033 8.5 40.4693 8.5 38.9C8.5 37.613 8.89167 36.4578 9.675 35.4345C10.4583 34.4115 11.45 33.7333 12.65 33.4V15.6C11.45 15.2667 10.4583 14.6 9.675 13.6C8.89167 12.6 8.5 11.45 8.5 10.15C8.5 8.58067 9.04167 7.24667 10.125 6.148C11.2083 5.04933 12.5417 4.5 14.125 4.5C15.7083 4.5 17.05 5.04933 18.15 6.148C19.25 7.24667 19.8 8.58067 19.8 10.15C19.8 11.45 19.4083 12.6 18.625 13.6C17.8417 14.6 16.85 15.2667 15.65 15.6V16.25C15.65 18.15 16.3 19.75 17.6 21.05C18.9 22.35 20.5 23 22.4 23H26.55C29.2613 23 31.5725 23.9457 33.4835 25.837C35.3945 27.7287 36.35 30.0163 36.35 32.7V33.4C37.55 33.7333 38.5417 34.4115 39.325 35.4345C40.1083 36.4578 40.5 37.613 40.5 38.9C40.5 40.4693 39.9555 41.8033 38.8665 42.902C37.7778 44.0007 36.4557 44.55 34.9 44.55C33.3167 44.55 31.9708 44.0007 30.8625 42.902C29.7542 41.8033 29.2 40.4693 29.2 38.9C29.2 37.6 29.5917 36.45 30.375 35.45C31.1583 34.45 32.15 33.7833 33.35 33.45V32.7C33.35 30.839 32.6888 29.257 31.3665 27.954C30.0445 26.6513 28.439 26 26.55 26H22.4C21.0997 26 19.8662 25.7583 18.6995 25.275C17.5332 24.7917 16.5167 24.1167 15.65 23.25V33.45C16.85 33.7833 17.8417 34.45 18.625 35.45C19.4083 36.45 19.8 37.6 19.8 38.9C19.8 40.4693 19.2507 41.8033 18.152 42.902C17.0533 44.0007 15.7193 44.55 14.15 44.55ZM14.1535 41.5C14.8892 41.5 15.5058 41.2417 16.0035 40.725C16.5012 40.2083 16.75 39.5833 16.75 38.85C16.75 38.1167 16.5012 37.4917 16.0035 36.975C15.5058 36.4583 14.8892 36.2 14.1535 36.2C13.4178 36.2 12.7917 36.4583 12.275 36.975C11.7583 37.4917 11.5 38.1167 11.5 38.85C11.5 39.5833 11.7583 40.2083 12.275 40.725C12.7917 41.2417 13.4178 41.5 14.1535 41.5ZM34.9035 41.5C35.6392 41.5 36.2558 41.2417 36.7535 40.725C37.2512 40.2083 37.5 39.5833 37.5 38.85C37.5 38.1167 37.2512 37.4917 36.7535 36.975C36.2558 36.4583 35.6392 36.2 34.9035 36.2C34.1678 36.2 33.5333 36.4583 33 36.975C32.4667 37.4917 32.2 38.1167 32.2 38.85C32.2 39.5833 32.4667 40.2083 33 40.725C33.5333 41.2417 34.1678 41.5 34.9035 41.5ZM14.1535 12.8C14.8892 12.8 15.5058 12.5417 16.0035 12.025C16.5012 11.5083 16.75 10.8833 16.75 10.15C16.75 9.41667 16.5012 8.79167 16.0035 8.275C15.5058 7.75833 14.8892 7.5 14.1535 7.5C13.4178 7.5 12.7917 7.75833 12.275 8.275C11.7583 8.79167 11.5 9.41667 11.5 10.15C11.5 10.8833 11.7583 11.5083 12.275 12.025C12.7917 12.5417 13.4178 12.8 14.1535 12.8Z" fill="white"/>
</svg>
