<svg width="49" height="49" viewBox="0 0 49 49" fill="none" xmlns="http://www.w3.org/2000/svg">
<path d="M13.5501 32.4C13.9501 32.4 14.3001 32.25 14.6001 31.95C14.9001 31.65 15.0501 31.3 15.0501 30.9C15.0501 30.5 14.9001 30.15 14.6001 29.85C14.3001 29.55 13.9501 29.4 13.5501 29.4C13.1501 29.4 12.8001 29.55 12.5001 29.85C12.2001 30.15 12.0501 30.5 12.0501 30.9C12.0501 31.3 12.2001 31.65 12.5001 31.95C12.8001 32.25 13.1501 32.4 13.5501 32.4ZM12.0501 25.9H15.0501V16.35H12.0501V25.9ZM21.0001 29.9H36.9501V26.9H21.0001V29.9ZM21.0001 21.35H36.9501V18.35H21.0001V21.35ZM7.1001 40.5C6.3001 40.5 5.6001 40.2 5.0001 39.6C4.4001 39 4.1001 38.3 4.1001 37.5V11.5C4.1001 10.7 4.4001 10 5.0001 9.4C5.6001 8.8 6.3001 8.5 7.1001 8.5H41.9001C42.7001 8.5 43.4001 8.8 44.0001 9.4C44.6001 10 44.9001 10.7 44.9001 11.5V37.5C44.9001 38.3 44.6001 39 44.0001 39.6C43.4001 40.2 42.7001 40.5 41.9001 40.5H7.1001ZM7.1001 37.5H41.9001V11.5H7.1001V37.5Z" fill="white"/>
</svg>
