<svg width="34" height="37" viewBox="0 0 34 37" fill="none" xmlns="http://www.w3.org/2000/svg">
<path fill-rule="evenodd" clip-rule="evenodd" d="M18.7661 1.19061C18.5429 0.891233 18.2075 0.695542 17.837 0.648521C17.4665 0.601501 17.0928 0.707197 16.8019 0.941312C13.3732 3.70015 10.9819 7.70256 10.3142 12.265C9.11052 11.3924 8.05332 10.3293 7.18726 9.11982C6.94901 8.7871 6.57494 8.57779 6.16674 8.5488C5.75854 8.5198 5.35864 8.67414 5.07576 8.96984C2.24253 11.9314 0.5 15.9509 0.5 20.3744C0.5 29.4871 7.8873 36.8744 17 36.8744C26.1127 36.8744 33.5 29.4871 33.5 20.3744C33.5 13.6627 29.4929 7.88998 23.7463 5.31244C21.7127 4.3197 20.0335 2.89021 18.7661 1.19061ZM23.875 23.1251C23.875 26.922 20.797 30.0001 17 30.0001C13.203 30.0001 10.125 26.922 10.125 23.1251C10.125 22.3746 10.2452 21.6523 10.4675 20.9762C11.6197 21.828 12.9441 22.4601 14.3789 22.8109C14.7747 20.2428 16.0587 17.9677 17.9073 16.3094C21.2754 16.7535 23.875 19.6357 23.875 23.1251Z" fill="white"/>
</svg>
