<svg width="24" height="24" viewBox="0 0 32 32" fill="none" xmlns="http://www.w3.org/2000/svg">
    <g clip-path="url(#clip0_97_18)">
        <path fill-rule="evenodd" clip-rule="evenodd"
            d="M31.2208 11.2369C31.2208 9.19579 30.6253 7.39322 29.4487 5.87225C29.7106 4.91087 29.9904 3.00605 29.1026 0.643869C29.0093 0.392769 28.8048 0.197269 28.5501 0.109369C28.2309 -3.08442e-05 26.5144 -0.396414 23.0743 1.95859C21.6716 1.5891 20.1919 1.39899 18.6602 1.39002C17.1338 1.39899 15.6541 1.5891 14.2551 1.95859C10.8114 -0.394614 9.09488 -3.08442e-05 8.77383 0.109386C8.51913 0.195469 8.31467 0.392769 8.2214 0.645669C7.33537 3.00605 7.61517 4.91087 7.87882 5.87224C6.70042 7.3986 6.10315 9.19939 6.10315 11.2369C6.10315 18.284 9.80157 20.5224 13.3063 21.3313C12.5314 22.1797 11.7189 23.4173 11.5449 24.9903C10.3486 25.4244 7.25107 26.2925 6.12647 24.2567C6.07625 24.1634 4.90323 21.9627 2.54285 21.7887C2.12493 21.8084 1.13307 21.8605 0.858651 22.6945C0.550151 23.6272 1.5169 24.3231 1.99042 24.6513C1.99938 24.6567 2.9195 25.184 3.55443 26.8521C3.57058 26.9292 3.95082 28.7641 5.80362 29.8779C7.26182 30.7567 9.1756 30.9361 11.4912 30.416C11.4912 30.807 11.4858 31.2195 11.484 31.4724L11.4786 31.9907H13.2722L13.2758 31.4939C13.3081 28.8017 13.3099 28.7497 12.7628 28.4663C12.5548 28.3587 12.3126 28.3336 12.0902 28.4053C9.81952 29.0887 7.9739 29.0725 6.75603 28.3587C5.58123 27.6664 5.32295 26.5436 5.27453 26.3642C5.20995 26.1866 5.14 26.0198 5.07005 25.8602C7.1865 28.2887 11.2724 27.1462 12.7915 26.4234C13.1054 26.2763 13.3045 25.9606 13.3045 25.6145C13.3045 23.1249 15.7761 21.5448 15.8012 21.5286C16.124 21.326 16.2837 20.9421 16.2012 20.5726C16.1187 20.2014 15.812 19.9216 15.4335 19.8767C11.7064 19.4301 7.89677 18.0544 7.89677 11.2369C7.89677 9.46484 8.45638 7.92054 9.55943 6.65067C9.77468 6.39955 9.83745 6.0498 9.71908 5.7413C9.55587 5.31802 9.11105 3.8616 9.7137 1.82765C10.3092 1.89582 11.5611 2.233 13.5664 3.6661C13.7888 3.82574 14.074 3.87237 14.3394 3.79704C15.681 3.40424 17.1787 3.19259 18.6602 3.18362C20.1489 3.19259 21.6448 3.40424 22.99 3.79704C23.2554 3.87237 23.5388 3.82574 23.763 3.6661C25.7826 2.22225 27.0363 1.89222 27.6085 1.82227C28.2165 3.85802 27.7717 5.31802 27.6085 5.7413C27.4883 6.0498 27.5511 6.40135 27.7681 6.65067C28.8694 7.91695 29.4272 9.45945 29.4272 11.2369C29.4272 18.0562 25.6086 19.4229 21.8743 19.8624C21.5246 19.9036 21.2304 20.144 21.1246 20.4794C21.017 20.813 21.1156 21.1807 21.3757 21.4174C21.4816 21.5125 21.625 21.6255 21.7936 21.7546C22.6492 22.4093 24.0805 23.5052 24.0805 26.0808C24.0805 27.5049 24.0572 31.9854 24.0572 31.9854L25.8508 31.9943C25.8508 31.9943 25.8741 27.5067 25.8741 26.0808C25.8741 23.7168 24.9324 22.2479 24.0267 21.3152C27.5332 20.5081 31.2208 18.2732 31.2208 11.2369"
            fill="white" 
        />
    </g>
    <defs>
        <clipPath id="clip0_97_18">
            <rect width="32" height="32" fill="white" />
        </clipPath>
    </defs>
</svg>