<svg width="28" height="28" viewBox="0 0 48 48" fill="none" xmlns="http://www.w3.org/2000/svg">
    <path fill-rule="evenodd" clip-rule="evenodd"
        d="M46.8314 16.8553C46.8314 13.7936 45.9382 11.0897 44.1732 8.80826C44.566 7.36618 44.9857 4.50896 43.654 0.965682C43.5141 0.589032 43.2074 0.295782 42.8253 0.163932C42.3465 -0.000168341 39.7717 -0.594743 34.6115 2.93776C32.5076 2.38353 30.288 2.09836 27.9904 2.08491C25.7009 2.09836 23.4813 2.38353 21.3828 2.93776C16.2172 -0.592043 13.6425 -0.000168341 13.1609 0.163957C12.7788 0.293082 12.4721 0.589032 12.3322 0.968382C11.0032 4.50896 11.4229 7.36618 11.8184 8.80823C10.0508 11.0978 9.15485 13.799 9.15485 16.8552C9.15485 27.4259 14.7025 30.7835 19.9596 31.9969C18.7973 33.2695 17.5786 35.1258 17.3176 37.4853C15.5231 38.1364 10.8767 39.4386 9.18983 36.3849C9.1145 36.245 7.35498 32.9439 3.8144 32.6829C3.18752 32.7125 1.69972 32.7906 1.2881 34.0416C0.825348 35.4406 2.27547 36.4845 2.98575 36.9768C2.9992 36.9849 4.37937 37.7759 5.33177 40.278C5.356 40.3937 5.92635 43.146 8.70555 44.8167C10.8929 46.135 13.7635 46.404 17.2369 45.6238C17.2369 46.2103 17.2288 46.8291 17.2261 47.2085L17.218 47.986H19.9085L19.9138 47.2407C19.9623 43.2024 19.965 43.1244 19.1444 42.6993C18.8323 42.5379 18.4691 42.5002 18.1355 42.6079C14.7294 43.6329 11.961 43.6087 10.1342 42.5379C8.37198 41.4994 7.98455 39.8152 7.91193 39.5462C7.81505 39.2798 7.71013 39.0296 7.6052 38.7902C10.7799 42.433 16.9087 40.7192 19.1874 39.635C19.6583 39.4143 19.9569 38.9408 19.9569 38.4216C19.9569 34.6873 23.6643 32.317 23.7019 32.2928C24.1862 31.9888 24.4257 31.4131 24.3019 30.8588C24.1781 30.3019 23.7181 29.8822 23.1504 29.815C17.5597 29.1451 11.8453 27.0815 11.8453 16.8553C11.8453 14.1971 12.6847 11.8807 14.3393 9.97588C14.6622 9.59921 14.7563 9.07458 14.5788 8.61183C14.3339 7.97691 13.6667 5.79228 14.5707 2.74136C15.4639 2.84361 17.3418 3.34938 20.3497 5.49903C20.6833 5.73848 21.1111 5.80843 21.5093 5.69543C23.5217 5.10623 25.7682 4.78876 27.9905 4.77531C30.2235 4.78876 32.4673 5.10623 34.4851 5.69543C34.8833 5.80843 35.3084 5.73848 35.6447 5.49903C38.6741 3.33326 40.5547 2.83821 41.4129 2.73328C42.325 5.78691 41.6577 7.97691 41.4129 8.61183C41.2327 9.07458 41.3268 9.60191 41.6524 9.97588C43.3043 11.8753 44.141 14.1891 44.141 16.8553C44.141 27.0842 38.4131 29.1343 32.8117 29.7934C32.287 29.8553 31.8458 30.2158 31.6871 30.7189C31.5257 31.2194 31.6736 31.7709 32.0637 32.126C32.2225 32.2686 32.4377 32.4381 32.6906 32.6318C33.9739 33.6138 36.1209 35.2577 36.1209 39.1211C36.1209 41.2573 36.0859 47.9779 36.0859 47.9779L38.7763 47.9914C38.7763 47.9914 38.8113 41.26 38.8113 39.1211C38.8113 35.5751 37.3988 33.3717 36.0402 31.9727C41.2999 30.762 46.8314 27.4097 46.8314 16.8553"
        fill="white"
    />
</svg>