<svg width="34" height="40" viewBox="0 0 34 40" fill="none" xmlns="http://www.w3.org/2000/svg">
<path fill-rule="evenodd" clip-rule="evenodd" d="M21.7946 0.924017C22.3469 1.23191 22.6179 1.87676 22.4516 2.48677L18.8002 15.875H32.125C32.6726 15.875 33.1679 16.1998 33.3861 16.702C33.6043 17.2041 33.5038 17.7879 33.1302 18.1882L13.8802 38.8132C13.4488 39.2754 12.7577 39.3838 12.2055 39.076C11.6532 38.7681 11.3821 38.1232 11.5485 37.5132L15.1998 24.125H1.87503C1.32751 24.125 0.832166 23.8001 0.613953 23.298C0.395739 22.7958 0.496246 22.2121 0.869829 21.8118L20.1198 1.1868C20.5513 0.724554 21.2423 0.616122 21.7946 0.924017Z" fill="white"/>
</svg>
