<svg width="28" height="28" viewBox="0 0 48 48" fill="none" xmlns="http://www.w3.org/2000/svg">
    <path fill-rule="evenodd" clip-rule="evenodd"
        d="M6.79395 23.2631C6.79395 33.2041 14.8528 41.2631 24.7939 41.2631C31.3715 41.2631 37.1311 37.7329 40.2715 32.4601C33.4569 34.6579 25.3843 33.5097 19.9655 28.0911C14.5039 22.6293 13.4519 14.5684 15.7339 7.78598C10.4138 10.9587 6.79395 16.7788 6.79395 23.2631ZM42.3739 27.1703C44.0249 26.2043 46.5099 27.2977 45.9999 29.1413C43.4287 38.4375 34.9085 45.2631 24.7939 45.2631C12.6437 45.2631 2.79395 35.4133 2.79395 23.2631C2.79395 13.1776 9.87055 4.51702 19.2304 2.00009C21.0785 1.50313 22.1289 3.98768 21.1281 5.61882C17.4004 11.6932 17.6638 20.1323 22.7939 25.2625C27.8637 30.3325 36.2729 30.7405 42.3739 27.1703Z"
        fill="white" 
    />
</svg>