<svg width="24" height="24" viewBox="0 0 32 32" fill="none" xmlns="http://www.w3.org/2000/svg">
    <g clip-path="url(#clip0_97_14)">
        <path
            d="M31.9015 20.7196C31.6908 20.2054 31.1946 19.8946 30.6697 19.894C30.6671 19.894 30.6644 19.8933 30.6617 19.8933C30.653 19.8933 30.6457 19.8967 30.637 19.8973C30.5343 19.9 30.4316 19.9167 30.3296 19.944C30.2916 19.954 30.2556 19.964 30.2189 19.9767C30.2002 19.9834 30.1809 19.986 30.1615 19.9934C28.4882 20.681 26.7109 21.0298 24.8775 21.0298C17.2099 21.0298 10.9715 14.7914 10.9715 7.12373C10.9715 5.29036 11.3196 3.513 12.0079 1.83969C12.0179 1.81635 12.0212 1.79167 12.0292 1.76766C12.0392 1.73832 12.0479 1.70897 12.0559 1.6783C12.0859 1.56825 12.1046 1.45754 12.1059 1.34684C12.1059 1.34217 12.1079 1.3375 12.1079 1.33216C12.1079 1.33083 12.1072 1.32883 12.1072 1.32749C12.1072 1.24746 12.0979 1.16877 12.0832 1.0914C12.0799 1.07473 12.0772 1.05806 12.0739 1.04138C12.0566 0.964688 12.0345 0.888658 12.0039 0.816631C11.9919 0.78862 11.9752 0.764611 11.9618 0.737934C11.8225 0.459827 11.5917 0.225736 11.2809 0.0983539C10.9174 -0.0503701 10.5286 -0.0236931 10.2005 0.133034C10.1972 0.134368 10.1932 0.135035 10.1898 0.137036C8.1964 0.956685 6.39704 2.15982 4.84177 3.71508C-1.61338 10.1782 -1.61338 20.6943 4.84244 27.1588C8.07435 30.3867 12.3187 32 16.5636 32C20.8086 32 25.0536 30.386 28.2861 27.1581C29.8361 25.6075 31.0372 23.8142 31.8568 21.8274C31.8608 21.8201 31.8622 21.8114 31.8655 21.8034C31.9035 21.724 31.9342 21.6413 31.9562 21.5553C31.9576 21.5486 31.9602 21.5426 31.9622 21.5359C32.0256 21.2732 32.0122 20.9891 31.9015 20.7196ZM26.4014 25.2721C20.9773 30.6881 12.1526 30.6881 6.72983 25.2721C1.31308 19.8486 1.31308 11.0239 6.72916 5.60114C7.30805 5.02225 7.93363 4.51206 8.58921 4.05254C8.40114 5.05827 8.30377 6.08333 8.30377 7.1244C8.30377 16.2633 15.7386 23.6981 24.8775 23.6981C25.9179 23.6981 26.9436 23.6007 27.9493 23.4127C27.4892 24.0676 26.9803 24.6932 26.4014 25.2721Z"
            fill="white"
        />
    </g>
    <defs>
        <clipPath id="clip0_97_14">
            <rect width="32" height="32" fill="white" />
        </clipPath>
    </defs>
</svg>