<svg width="167" height="168" viewBox="0 0 167 168" fill="none" xmlns="http://www.w3.org/2000/svg">
<rect x="1.25" y="1.75" width="164.5" height="164.5" rx="82.25" fill="url(#paint0_linear_247_6)"/>
<rect x="1.25" y="1.75" width="164.5" height="164.5" rx="82.25" stroke="url(#paint1_linear_247_6)" stroke-width="2"/>
<rect x="21.25" y="21.75" width="124.5" height="124.5" rx="62.25" fill="url(#paint2_linear_247_6)"/>
<rect x="21.25" y="21.75" width="124.5" height="124.5" rx="62.25" stroke="url(#paint3_linear_247_6)" stroke-width="2"/>
<rect x="43.25" y="43.75" width="80.5" height="80.5" rx="40.25" fill="url(#paint4_linear_247_6)"/>
<rect x="43.25" y="43.75" width="80.5" height="80.5" rx="40.25" stroke="url(#paint5_linear_247_6)" stroke-width="2"/>
<path fill-rule="evenodd" clip-rule="evenodd" d="M78 70.25C78.6139 70.25 79.1534 70.657 79.3221 71.2473L80.813 76.4653C81.4655 78.7492 83.2508 80.5345 85.5347 81.187L90.7527 82.6779C91.343 82.8466 91.75 83.3861 91.75 84C91.75 84.6139 91.343 85.1534 90.7527 85.3221L85.5347 86.813C83.2508 87.4655 81.4655 89.2508 80.813 91.5347L79.3221 96.7527C79.1534 97.343 78.6139 97.75 78 97.75C77.3861 97.75 76.8466 97.343 76.6779 96.7527L75.187 91.5347C74.5345 89.2508 72.7492 87.4655 70.4653 86.813L65.2473 85.3221C64.657 85.1534 64.25 84.6139 64.25 84C64.25 83.3861 64.657 82.8466 65.2473 82.6779L70.4653 81.187C72.7492 80.5345 74.5345 78.7492 75.187 76.4653L76.6779 71.2473C76.8466 70.657 77.3861 70.25 78 70.25Z" fill="white"/>
<path fill-rule="evenodd" clip-rule="evenodd" d="M94.5 64.75C95.1309 64.75 95.6809 65.1794 95.8339 65.7915L96.3085 67.6899C96.7396 69.4141 98.0859 70.7604 99.8101 71.1915L101.708 71.6661C102.321 71.8191 102.75 72.3691 102.75 73C102.75 73.6309 102.321 74.1809 101.708 74.3339L99.8101 74.8085C98.0859 75.2396 96.7396 76.5859 96.3085 78.3101L95.8339 80.2085C95.6809 80.8206 95.1309 81.25 94.5 81.25C93.8691 81.25 93.3191 80.8206 93.1661 80.2085L92.6915 78.3101C92.2604 76.5859 90.9141 75.2396 89.1899 74.8085L87.2915 74.3339C86.6794 74.1809 86.25 73.6309 86.25 73C86.25 72.3691 86.6794 71.8191 87.2915 71.6661L89.1899 71.1915C90.9141 70.7604 92.2604 69.4141 92.6915 67.6899L93.1661 65.7915C93.3191 65.1794 93.8691 64.75 94.5 64.75Z" fill="white"/>
<path fill-rule="evenodd" clip-rule="evenodd" d="M91.75 89.5C92.3418 89.5 92.8673 89.8787 93.0544 90.4402L93.7772 92.6085C94.0509 93.4297 94.6953 94.0741 95.5165 94.3478L97.6848 95.0706C98.2463 95.2577 98.625 95.7832 98.625 96.375C98.625 96.9668 98.2463 97.4923 97.6848 97.6794L95.5165 98.4022C94.6953 98.6759 94.0509 99.3203 93.7772 100.141L93.0544 102.31C92.8673 102.871 92.3418 103.25 91.75 103.25C91.1582 103.25 90.6327 102.871 90.4456 102.31L89.7228 100.141C89.4491 99.3203 88.8047 98.6759 87.9835 98.4022L85.8152 97.6794C85.2537 97.4923 84.875 96.9668 84.875 96.375C84.875 95.7832 85.2537 95.2577 85.8152 95.0706L87.9835 94.3478C88.8047 94.0741 89.4491 93.4297 89.7228 92.6085L90.4456 90.4402C90.6327 89.8787 91.1582 89.5 91.75 89.5Z" fill="white"/>
<defs>
<linearGradient id="paint0_linear_247_6" x1="83.5" y1="0.75" x2="83.5" y2="167.25" gradientUnits="userSpaceOnUse">
<stop stop-color="#1A1A1A"/>
<stop offset="0.565952" stop-color="#1A1A1A" stop-opacity="0"/>
</linearGradient>
<linearGradient id="paint1_linear_247_6" x1="83.5" y1="0.75" x2="83.5" y2="167.25" gradientUnits="userSpaceOnUse">
<stop stop-color="#333333"/>
<stop offset="0.745602" stop-color="#333333" stop-opacity="0"/>
</linearGradient>
<linearGradient id="paint2_linear_247_6" x1="83.5" y1="20.75" x2="83.5" y2="147.25" gradientUnits="userSpaceOnUse">
<stop stop-color="#1A1A1A"/>
<stop offset="0.658009" stop-color="#1A1A1A" stop-opacity="0"/>
</linearGradient>
<linearGradient id="paint3_linear_247_6" x1="83.5" y1="20.75" x2="83.5" y2="147.25" gradientUnits="userSpaceOnUse">
<stop stop-color="#333333"/>
<stop offset="0.82384" stop-color="#333333" stop-opacity="0"/>
</linearGradient>
<linearGradient id="paint4_linear_247_6" x1="83.5" y1="44.75" x2="83.5" y2="123.25" gradientUnits="userSpaceOnUse">
<stop stop-color="#1A1A1A"/>
<stop offset="1" stop-color="#1A1A1A" stop-opacity="0"/>
</linearGradient>
<linearGradient id="paint5_linear_247_6" x1="83.5" y1="44.75" x2="83.5" y2="123.25" gradientUnits="userSpaceOnUse">
<stop stop-color="#333333"/>
<stop offset="0.84964" stop-color="#333333" stop-opacity="0"/>
</linearGradient>
</defs>
</svg>
