<svg width="172" height="172" viewBox="0 0 172 172" fill="none" xmlns="http://www.w3.org/2000/svg">
<rect x="1" y="1" width="170" height="170" rx="85" fill="url(#paint0_linear_247_12)"/>
<rect x="1" y="1" width="170" height="170" rx="85" stroke="url(#paint1_linear_247_12)" stroke-width="2"/>
<rect x="21" y="21" width="130" height="130" rx="65" fill="url(#paint2_linear_247_12)"/>
<rect x="21" y="21" width="130" height="130" rx="65" stroke="url(#paint3_linear_247_12)" stroke-width="2"/>
<rect x="43" y="43" width="86" height="86" rx="43" fill="url(#paint4_linear_247_12)"/>
<rect x="43" y="43" width="86" height="86" rx="43" stroke="url(#paint5_linear_247_12)" stroke-width="2"/>
<path fill-rule="evenodd" clip-rule="evenodd" d="M90.7946 66.924C91.3469 67.2319 91.6179 67.8768 91.4516 68.4868L87.8002 81.875H101.125C101.673 81.875 102.168 82.1998 102.386 82.702C102.604 83.2041 102.504 83.7879 102.13 84.1882L82.8802 104.813C82.4488 105.275 81.7577 105.384 81.2055 105.076C80.6532 104.768 80.3821 104.123 80.5485 103.513L84.1998 90.125H70.875C70.3275 90.125 69.8322 89.8001 69.614 89.298C69.3957 88.7958 69.4962 88.2121 69.8698 87.8118L89.1198 67.1868C89.5513 66.7246 90.2423 66.6161 90.7946 66.924Z" fill="white"/>
<defs>
<linearGradient id="paint0_linear_247_12" x1="86" y1="0" x2="86" y2="172" gradientUnits="userSpaceOnUse">
<stop stop-color="#1A1A1A"/>
<stop offset="0.565952" stop-color="#1A1A1A" stop-opacity="0"/>
</linearGradient>
<linearGradient id="paint1_linear_247_12" x1="86" y1="0" x2="86" y2="172" gradientUnits="userSpaceOnUse">
<stop stop-color="#333333"/>
<stop offset="0.745602" stop-color="#333333" stop-opacity="0"/>
</linearGradient>
<linearGradient id="paint2_linear_247_12" x1="86" y1="20" x2="86" y2="152" gradientUnits="userSpaceOnUse">
<stop stop-color="#1A1A1A"/>
<stop offset="0.658009" stop-color="#1A1A1A" stop-opacity="0"/>
</linearGradient>
<linearGradient id="paint3_linear_247_12" x1="86" y1="20" x2="86" y2="152" gradientUnits="userSpaceOnUse">
<stop stop-color="#333333"/>
<stop offset="0.82384" stop-color="#333333" stop-opacity="0"/>
</linearGradient>
<linearGradient id="paint4_linear_247_12" x1="86" y1="44" x2="86" y2="128" gradientUnits="userSpaceOnUse">
<stop stop-color="#1A1A1A"/>
<stop offset="1" stop-color="#1A1A1A" stop-opacity="0"/>
</linearGradient>
<linearGradient id="paint5_linear_247_12" x1="86" y1="44" x2="86" y2="128" gradientUnits="userSpaceOnUse">
<stop stop-color="#333333"/>
<stop offset="0.84964" stop-color="#333333" stop-opacity="0"/>
</linearGradient>
</defs>
</svg>
