<svg width="141" height="15" viewBox="0 0 141 15" fill="none" xmlns="http://www.w3.org/2000/svg">
    <path
        d="M0.765625 10.875C0.765625 10.5156 0.880208 10.2083 1.10938 9.95312C1.34375 9.69792 1.67969 9.57031 2.11719 9.57031C2.54427 9.57031 2.8776 9.69792 3.11719 9.95312C3.35677 10.2031 3.47656 10.5104 3.47656 10.875C3.47656 11.2396 3.35417 11.5443 3.10938 11.7891C2.86979 12.0339 2.53906 12.1562 2.11719 12.1562C1.6901 12.1562 1.35677 12.0339 1.11719 11.7891C0.882812 11.5391 0.765625 11.2344 0.765625 10.875ZM0.765625 4.25781C0.765625 3.89844 0.880208 3.59115 1.10938 3.33594C1.34375 3.08073 1.67969 2.95312 2.11719 2.95312C2.54427 2.95312 2.8776 3.08073 3.11719 3.33594C3.35677 3.58594 3.47656 3.89323 3.47656 4.25781C3.47656 4.6224 3.35417 4.92708 3.10938 5.17188C2.86979 5.41667 2.53906 5.53906 2.11719 5.53906C1.6901 5.53906 1.35677 5.41667 1.11719 5.17188C0.882812 4.92188 0.765625 4.61719 0.765625 4.25781ZM40.7656 11.7578C40.7656 12.3203 40.6276 12.8906 40.3516 13.4688C40.0807 14.0521 39.7214 14.5443 39.2734 14.9453L38.2266 14.3906C38.4505 14.0208 38.6224 13.6302 38.7422 13.2188C38.8672 12.8073 38.9297 12.3438 38.9297 11.8281V10.1797H40.7656V11.7578ZM58.4219 10.875C58.4219 10.5156 58.5365 10.2083 58.7656 9.95312C59 9.69792 59.3359 9.57031 59.7734 9.57031C60.2005 9.57031 60.5339 9.69792 60.7734 9.95312C61.013 10.2031 61.1328 10.5104 61.1328 10.875C61.1328 11.2396 61.0104 11.5443 60.7656 11.7891C60.526 12.0339 60.1953 12.1562 59.7734 12.1562C59.3464 12.1562 59.013 12.0339 58.7734 11.7891C58.5391 11.5391 58.4219 11.2344 58.4219 10.875ZM58.4219 4.25781C58.4219 3.89844 58.5365 3.59115 58.7656 3.33594C59 3.08073 59.3359 2.95312 59.7734 2.95312C60.2005 2.95312 60.5339 3.08073 60.7734 3.33594C61.013 3.58594 61.1328 3.89323 61.1328 4.25781C61.1328 4.6224 61.0104 4.92708 60.7656 5.17188C60.526 5.41667 60.1953 5.53906 59.7734 5.53906C59.3464 5.53906 59.013 5.41667 58.7734 5.17188C58.5391 4.92188 58.4219 4.61719 58.4219 4.25781ZM98.4219 11.7578C98.4219 12.3203 98.2839 12.8906 98.0078 13.4688C97.737 14.0521 97.3776 14.5443 96.9297 14.9453L95.8828 14.3906C96.1068 14.0208 96.2786 13.6302 96.3984 13.2188C96.5234 12.8073 96.5859 12.3438 96.5859 11.8281V10.1797H98.4219V11.7578ZM116.078 10.875C116.078 10.5156 116.193 10.2083 116.422 9.95312C116.656 9.69792 116.992 9.57031 117.43 9.57031C117.857 9.57031 118.19 9.69792 118.43 9.95312C118.669 10.2031 118.789 10.5104 118.789 10.875C118.789 11.2396 118.667 11.5443 118.422 11.7891C118.182 12.0339 117.852 12.1562 117.43 12.1562C117.003 12.1562 116.669 12.0339 116.43 11.7891C116.195 11.5391 116.078 11.2344 116.078 10.875ZM116.078 4.25781C116.078 3.89844 116.193 3.59115 116.422 3.33594C116.656 3.08073 116.992 2.95312 117.43 2.95312C117.857 2.95312 118.19 3.08073 118.43 3.33594C118.669 3.58594 118.789 3.89323 118.789 4.25781C118.789 4.6224 118.667 4.92708 118.422 5.17188C118.182 5.41667 117.852 5.53906 117.43 5.53906C117.003 5.53906 116.669 5.41667 116.43 5.17188C116.195 4.92188 116.078 4.61719 116.078 4.25781Z"
        fill="white" 
    />
    <path
        d="M9.6875 4.75C9.79688 4.58333 9.91927 4.42969 10.0547 4.28906C10.1901 4.14844 10.3333 4.02604 10.4844 3.92188C10.7188 3.75 10.9766 3.61979 11.2578 3.53125C11.5443 3.4375 11.8464 3.39062 12.1641 3.39062C12.6068 3.39062 13.0104 3.45573 13.375 3.58594C13.7448 3.71615 14.0599 3.91927 14.3203 4.19531C14.5807 4.47135 14.7812 4.82552 14.9219 5.25781C15.0677 5.6849 15.1406 6.19792 15.1406 6.79688V12H13.2734V6.78125C13.2734 6.46875 13.2344 6.19531 13.1562 5.96094C13.0833 5.72656 12.974 5.53646 12.8281 5.39062C12.6771 5.23438 12.4922 5.11979 12.2734 5.04688C12.0599 4.96875 11.8125 4.92969 11.5312 4.92969C11.3125 4.92969 11.1042 4.95573 10.9062 5.00781C10.7135 5.0599 10.5365 5.13542 10.375 5.23438C10.2396 5.3125 10.112 5.40625 9.99219 5.51562C9.8776 5.625 9.77604 5.7474 9.6875 5.88281V12H7.82031V0H9.6875V4.75ZM22.8281 12C22.7708 11.8958 22.724 11.7708 22.6875 11.625C22.6562 11.474 22.6276 11.3177 22.6016 11.1562C22.4714 11.2917 22.3229 11.4219 22.1562 11.5469C21.9948 11.6667 21.8125 11.7708 21.6094 11.8594C21.4062 11.9531 21.1875 12.026 20.9531 12.0781C20.7188 12.1302 20.4661 12.1562 20.1953 12.1562C19.7578 12.1562 19.3568 12.0938 18.9922 11.9688C18.6328 11.8385 18.3255 11.6615 18.0703 11.4375C17.8099 11.2188 17.6068 10.9557 17.4609 10.6484C17.3203 10.3359 17.25 10 17.25 9.64062C17.25 9.17708 17.3411 8.76823 17.5234 8.41406C17.7109 8.05469 17.9818 7.75781 18.3359 7.52344C18.6641 7.30469 19.0677 7.13802 19.5469 7.02344C20.0312 6.90885 20.5781 6.85156 21.1875 6.85156H22.5469V6.28125C22.5469 6.0625 22.5078 5.86458 22.4297 5.6875C22.3568 5.51042 22.25 5.35677 22.1094 5.22656C21.9583 5.09635 21.7734 4.9974 21.5547 4.92969C21.3411 4.85677 21.0938 4.82031 20.8125 4.82031C20.5573 4.82031 20.3333 4.85156 20.1406 4.91406C19.9531 4.97656 19.7969 5.0625 19.6719 5.17188C19.5469 5.27083 19.4531 5.39323 19.3906 5.53906C19.3333 5.67969 19.3047 5.83073 19.3047 5.99219H17.4297C17.4349 5.65365 17.5156 5.32812 17.6719 5.01562C17.8281 4.70312 18.0573 4.42708 18.3594 4.1875C18.651 3.94271 19.0104 3.75 19.4375 3.60938C19.8698 3.46354 20.362 3.39062 20.9141 3.39062C21.4089 3.39062 21.8698 3.45312 22.2969 3.57812C22.7292 3.69792 23.1016 3.8776 23.4141 4.11719C23.7266 4.35677 23.9714 4.66146 24.1484 5.03125C24.3255 5.39583 24.4141 5.81771 24.4141 6.29688V10.0547C24.4141 10.4349 24.4401 10.7786 24.4922 11.0859C24.5495 11.388 24.6302 11.6484 24.7344 11.8672V12H22.8281ZM20.5547 10.6562C20.7995 10.6562 21.026 10.625 21.2344 10.5625C21.4479 10.5 21.6406 10.4193 21.8125 10.3203C21.9844 10.2214 22.1328 10.1094 22.2578 9.98438C22.3828 9.85938 22.4792 9.72917 22.5469 9.59375V8.03125H21.3438C20.9375 8.03125 20.5859 8.07031 20.2891 8.14844C19.9922 8.22135 19.7552 8.32812 19.5781 8.46875C19.4219 8.58854 19.3047 8.73177 19.2266 8.89844C19.1536 9.0651 19.1172 9.2526 19.1172 9.46094C19.1172 9.63281 19.1484 9.79427 19.2109 9.94531C19.2734 10.0911 19.3646 10.2161 19.4844 10.3203C19.6042 10.4245 19.7526 10.5078 19.9297 10.5703C20.1068 10.6276 20.3151 10.6562 20.5547 10.6562ZM32.5625 9.71094C32.5625 9.5651 32.5286 9.4349 32.4609 9.32031C32.3984 9.20573 32.2917 9.09635 32.1406 8.99219C31.9792 8.89844 31.7682 8.8099 31.5078 8.72656C31.2474 8.64323 30.9219 8.5651 30.5312 8.49219C30.0417 8.39323 29.5938 8.27083 29.1875 8.125C28.7865 7.97917 28.4401 7.80208 28.1484 7.59375C27.862 7.39583 27.638 7.16146 27.4766 6.89062C27.3151 6.61979 27.2344 6.30469 27.2344 5.94531C27.2344 5.60156 27.3151 5.27604 27.4766 4.96875C27.6432 4.65625 27.8802 4.38281 28.1875 4.14844C28.4896 3.91406 28.8542 3.72917 29.2812 3.59375C29.7135 3.45833 30.1927 3.39062 30.7188 3.39062C31.2812 3.39062 31.7865 3.46094 32.2344 3.60156C32.6823 3.73698 33.0625 3.92448 33.375 4.16406C33.6823 4.40365 33.9193 4.6875 34.0859 5.01562C34.2526 5.34375 34.3359 5.69792 34.3359 6.07812H32.4688C32.4688 5.92188 32.4349 5.77344 32.3672 5.63281C32.3047 5.48698 32.2109 5.35677 32.0859 5.24219C31.9401 5.10677 31.7526 5 31.5234 4.92188C31.2943 4.83854 31.026 4.79688 30.7188 4.79688C30.4375 4.79688 30.1901 4.82812 29.9766 4.89062C29.7682 4.94792 29.5964 5.02865 29.4609 5.13281C29.3255 5.22656 29.224 5.33854 29.1562 5.46875C29.0885 5.59375 29.0547 5.72656 29.0547 5.86719C29.0547 6.01302 29.0833 6.14583 29.1406 6.26562C29.1979 6.38021 29.2995 6.48177 29.4453 6.57031C29.5807 6.66406 29.7682 6.75 30.0078 6.82812C30.2526 6.90625 30.5599 6.97656 30.9297 7.03906C31.4453 7.13281 31.9167 7.2474 32.3438 7.38281C32.7708 7.51823 33.1354 7.6849 33.4375 7.88281C33.7396 8.09115 33.974 8.33594 34.1406 8.61719C34.3073 8.89844 34.3906 9.23177 34.3906 9.61719C34.3906 9.99219 34.3021 10.3359 34.125 10.6484C33.9531 10.9609 33.7083 11.2292 33.3906 11.4531C33.0677 11.6771 32.6823 11.8516 32.2344 11.9766C31.7865 12.1016 31.2891 12.1641 30.7422 12.1641C30.1328 12.1641 29.5911 12.0833 29.1172 11.9219C28.6484 11.7604 28.2552 11.5469 27.9375 11.2812C27.6146 11.0208 27.3698 10.7214 27.2031 10.3828C27.0365 10.0443 26.9531 9.70052 26.9531 9.35156H28.7656C28.7812 9.61198 28.849 9.83333 28.9688 10.0156C29.0938 10.1927 29.25 10.3359 29.4375 10.4453C29.6198 10.5599 29.8281 10.6432 30.0625 10.6953C30.2969 10.7422 30.5339 10.7656 30.7734 10.7656C31.0964 10.7656 31.3776 10.7318 31.6172 10.6641C31.862 10.5964 32.0573 10.5052 32.2031 10.3906C32.3229 10.2969 32.4115 10.1953 32.4688 10.0859C32.5312 9.97135 32.5625 9.84635 32.5625 9.71094ZM65.4766 12V3.54688H67.1641L67.2812 4.75C67.3958 4.58854 67.5208 4.4401 67.6562 4.30469C67.7969 4.16406 67.9453 4.03906 68.1016 3.92969C68.3516 3.75781 68.625 3.625 68.9219 3.53125C69.2188 3.4375 69.5312 3.39062 69.8594 3.39062C70.2917 3.39062 70.6875 3.45312 71.0469 3.57812C71.4062 3.70312 71.7135 3.90104 71.9688 4.17188C72.224 4.44271 72.4219 4.78906 72.5625 5.21094C72.7031 5.6276 72.7734 6.13281 72.7734 6.72656V12H70.9062V6.75781C70.9062 6.40885 70.8672 6.11719 70.7891 5.88281C70.7109 5.64844 70.5964 5.46094 70.4453 5.32031C70.2943 5.17969 70.112 5.08073 69.8984 5.02344C69.6849 4.96094 69.4401 4.92969 69.1641 4.92969C68.9349 4.92969 68.7214 4.96094 68.5234 5.02344C68.3255 5.08073 68.1458 5.16406 67.9844 5.27344C67.8594 5.35677 67.7422 5.45833 67.6328 5.57812C67.5234 5.69792 67.4271 5.82812 67.3438 5.96875V12H65.4766ZM74.7422 7.69531C74.7422 7.08073 74.8307 6.51302 75.0078 5.99219C75.1849 5.46615 75.4427 5.01042 75.7812 4.625C76.1146 4.23958 76.5234 3.9375 77.0078 3.71875C77.4922 3.5 78.0443 3.39062 78.6641 3.39062C79.2839 3.39062 79.8359 3.5 80.3203 3.71875C80.8099 3.9375 81.224 4.23958 81.5625 4.625C81.8958 5.01042 82.151 5.46615 82.3281 5.99219C82.5052 6.51302 82.5938 7.08073 82.5938 7.69531V7.85938C82.5938 8.47917 82.5052 9.04948 82.3281 9.57031C82.151 10.0911 81.8958 10.5443 81.5625 10.9297C81.2292 11.3151 80.8177 11.6172 80.3281 11.8359C79.8438 12.0547 79.2943 12.1641 78.6797 12.1641C78.0599 12.1641 77.5052 12.0547 77.0156 11.8359C76.526 11.6172 76.1146 11.3151 75.7812 10.9297C75.4427 10.5443 75.1849 10.0911 75.0078 9.57031C74.8307 9.04948 74.7422 8.47917 74.7422 7.85938V7.69531ZM76.6094 7.85938C76.6094 8.23958 76.6484 8.59896 76.7266 8.9375C76.8099 9.27604 76.9375 9.57292 77.1094 9.82812C77.276 10.0833 77.4896 10.2865 77.75 10.4375C78.0104 10.5833 78.3203 10.6562 78.6797 10.6562C79.0286 10.6562 79.3333 10.5833 79.5938 10.4375C79.8542 10.2865 80.0677 10.0833 80.2344 9.82812C80.401 9.57292 80.5234 9.27604 80.6016 8.9375C80.6849 8.59896 80.7266 8.23958 80.7266 7.85938V7.69531C80.7266 7.32552 80.6849 6.97135 80.6016 6.63281C80.5182 6.29427 80.3958 5.9974 80.2344 5.74219C80.0625 5.48698 79.8464 5.28385 79.5859 5.13281C79.3307 4.98177 79.0234 4.90625 78.6641 4.90625C78.3099 4.90625 78.0026 4.98177 77.7422 5.13281C77.487 5.28385 77.276 5.48698 77.1094 5.74219C76.9375 5.9974 76.8099 6.29427 76.7266 6.63281C76.6484 6.97135 76.6094 7.32552 76.6094 7.69531V7.85938ZM88.4453 1.48438V3.54688H91.625V4.94531H88.4453V8.98438C88.4453 9.29688 88.4818 9.5599 88.5547 9.77344C88.6328 9.98177 88.7396 10.1458 88.875 10.2656C89.0104 10.3906 89.1719 10.4792 89.3594 10.5312C89.5469 10.5833 89.7526 10.6094 89.9766 10.6094C90.138 10.6094 90.3047 10.6016 90.4766 10.5859C90.6484 10.5703 90.8151 10.5495 90.9766 10.5234C91.1328 10.5026 91.2786 10.4792 91.4141 10.4531C91.5547 10.4219 91.6719 10.3958 91.7656 10.375L91.9688 11.6641C91.8333 11.7474 91.6693 11.8203 91.4766 11.8828C91.2891 11.9401 91.0859 11.9896 90.8672 12.0312C90.6484 12.0729 90.4193 12.1042 90.1797 12.125C89.9453 12.151 89.7109 12.1641 89.4766 12.1641C89.0495 12.1641 88.6562 12.1068 88.2969 11.9922C87.9427 11.8724 87.638 11.6875 87.3828 11.4375C87.1276 11.1927 86.9271 10.8776 86.7812 10.4922C86.6406 10.1068 86.5703 9.64323 86.5703 9.10156V4.94531H84.5234V3.54688H86.5703V1.48438H88.4453ZM123.562 3.54688H128.047V10.4531H130.531V12H123.562V10.4531H126.164V5.10156H123.562V3.54688ZM125.992 1.35938C125.992 1.20833 126.018 1.07031 126.07 0.945312C126.122 0.815104 126.198 0.703125 126.297 0.609375C126.391 0.520833 126.503 0.453125 126.633 0.40625C126.768 0.354167 126.919 0.328125 127.086 0.328125C127.367 0.328125 127.594 0.401042 127.766 0.546875C127.943 0.6875 128.044 0.869792 128.07 1.09375C128.107 1.32292 128.068 1.52344 127.953 1.69531C127.839 1.86198 127.672 1.97396 127.453 2.03125C127.344 2.13021 127.214 2.19531 127.062 2.22656C126.911 2.25781 126.745 2.24479 126.562 2.1875C126.375 2.13021 126.232 2.02865 126.133 1.88281C126.039 1.73177 125.992 1.55729 125.992 1.35938ZM138.266 9.71094C138.266 9.5651 138.232 9.4349 138.164 9.32031C138.102 9.20573 137.995 9.09635 137.844 8.99219C137.682 8.89844 137.471 8.8099 137.211 8.72656C136.951 8.64323 136.625 8.5651 136.234 8.49219C135.745 8.39323 135.297 8.27083 134.891 8.125C134.49 7.97917 134.143 7.80208 133.852 7.59375C133.565 7.39583 133.341 7.16146 133.18 6.89062C133.018 6.61979 132.938 6.30469 132.938 5.94531C132.938 5.60156 133.018 5.27604 133.18 4.96875C133.346 4.65625 133.583 4.38281 133.891 4.14844C134.193 3.91406 134.557 3.72917 134.984 3.59375C135.417 3.45833 135.896 3.39062 136.422 3.39062C136.984 3.39062 137.49 3.46094 137.938 3.60156C138.385 3.73698 138.766 3.92448 139.078 4.16406C139.385 4.40365 139.622 4.6875 139.789 5.01562C139.956 5.34375 140.039 5.69792 140.039 6.07812H138.172C138.172 5.92188 138.138 5.77344 138.07 5.63281C138.008 5.48698 137.914 5.35677 137.789 5.24219C137.643 5.10677 137.456 5 137.227 4.92188C136.997 4.83854 136.729 4.79688 136.422 4.79688C136.141 4.79688 135.893 4.82812 135.68 4.89062C135.471 4.94792 135.299 5.02865 135.164 5.13281C135.029 5.22656 134.927 5.33854 134.859 5.46875C134.792 5.59375 134.758 5.72656 134.758 5.86719C134.758 6.01302 134.786 6.14583 134.844 6.26562C134.901 6.38021 135.003 6.48177 135.148 6.57031C135.284 6.66406 135.471 6.75 135.711 6.82812C135.956 6.90625 136.263 6.97656 136.633 7.03906C137.148 7.13281 137.62 7.2474 138.047 7.38281C138.474 7.51823 138.839 7.6849 139.141 7.88281C139.443 8.09115 139.677 8.33594 139.844 8.61719C140.01 8.89844 140.094 9.23177 140.094 9.61719C140.094 9.99219 140.005 10.3359 139.828 10.6484C139.656 10.9609 139.411 11.2292 139.094 11.4531C138.771 11.6771 138.385 11.8516 137.938 11.9766C137.49 12.1016 136.992 12.1641 136.445 12.1641C135.836 12.1641 135.294 12.0833 134.82 11.9219C134.352 11.7604 133.958 11.5469 133.641 11.2812C133.318 11.0208 133.073 10.7214 132.906 10.3828C132.74 10.0443 132.656 9.70052 132.656 9.35156H134.469C134.484 9.61198 134.552 9.83333 134.672 10.0156C134.797 10.1927 134.953 10.3359 135.141 10.4453C135.323 10.5599 135.531 10.6432 135.766 10.6953C136 10.7422 136.237 10.7656 136.477 10.7656C136.799 10.7656 137.081 10.7318 137.32 10.6641C137.565 10.5964 137.76 10.5052 137.906 10.3906C138.026 10.2969 138.115 10.1953 138.172 10.0859C138.234 9.97135 138.266 9.84635 138.266 9.71094Z"
        fill="#F78C6C" 
    />
</svg>