<svg width="94" height="76" viewBox="0 0 94 76" fill="none" xmlns="http://www.w3.org/2000/svg">
    <path
        d="M7.05469 10.7031L0.265625 7.79688V6.29688L7.05469 3.39844V5.26562L2.5625 6.89062L2.08594 7.0625L2.5625 7.22656L7.05469 8.83594V10.7031ZM77.1875 10.7031V8.85156L81.9062 7.17969L82.3828 7.03906L81.9141 6.88281L77.1875 5.24219V3.39062L84.1641 6.28906V7.79688L77.1875 10.7031ZM26.2734 31.7031L19.4844 28.7969V27.2969L26.2734 24.3984V26.2656L21.7812 27.8906L21.3047 28.0625L21.7812 28.2266L26.2734 29.8359V31.7031ZM57.9688 31.7031V29.8516L62.6875 28.1797L63.1641 28.0391L62.6953 27.8828L57.9688 26.2422V24.3906L64.9453 27.2891V28.7969L57.9688 31.7031ZM26.2734 52.7031L19.4844 49.7969V48.2969L26.2734 45.3984V47.2656L21.7812 48.8906L21.3047 49.0625L21.7812 49.2266L26.2734 50.8359V52.7031ZM31.3672 54.9766H29.6484L34.1172 42.625H35.8281L31.3672 54.9766ZM67.5781 52.7031V50.8516L72.2969 49.1797L72.7734 49.0391L72.3047 48.8828L67.5781 47.2422V45.3906L74.5547 48.2891V49.7969L67.5781 52.7031ZM7.05469 73.7031L0.265625 70.7969V69.2969L7.05469 66.3984V68.2656L2.5625 69.8906L2.08594 70.0625L2.5625 70.2266L7.05469 71.8359V73.7031ZM12.1484 75.9766H10.4297L14.8984 63.625H16.6094L12.1484 75.9766ZM86.7969 73.7031V71.8516L91.5156 70.1797L91.9922 70.0391L91.5234 69.8828L86.7969 68.2422V66.3906L93.7734 69.2891V70.7969L86.7969 73.7031Z"
        fill="white" 
        fill-opacity="0.25" 
    />
    <path
        d="M15.3438 9.71094C15.3438 9.5651 15.3099 9.4349 15.2422 9.32031C15.1797 9.20573 15.0729 9.09635 14.9219 8.99219C14.7604 8.89844 14.5495 8.8099 14.2891 8.72656C14.0286 8.64323 13.7031 8.5651 13.3125 8.49219C12.8229 8.39323 12.375 8.27083 11.9688 8.125C11.5677 7.97917 11.2214 7.80208 10.9297 7.59375C10.6432 7.39583 10.4193 7.16146 10.2578 6.89062C10.0964 6.61979 10.0156 6.30469 10.0156 5.94531C10.0156 5.60156 10.0964 5.27604 10.2578 4.96875C10.4245 4.65625 10.6615 4.38281 10.9688 4.14844C11.2708 3.91406 11.6354 3.72917 12.0625 3.59375C12.4948 3.45833 12.974 3.39062 13.5 3.39062C14.0625 3.39062 14.5677 3.46094 15.0156 3.60156C15.4635 3.73698 15.8438 3.92448 16.1562 4.16406C16.4635 4.40365 16.7005 4.6875 16.8672 5.01562C17.0339 5.34375 17.1172 5.69792 17.1172 6.07812H15.25C15.25 5.92188 15.2161 5.77344 15.1484 5.63281C15.0859 5.48698 14.9922 5.35677 14.8672 5.24219C14.7214 5.10677 14.5339 5 14.3047 4.92188C14.0755 4.83854 13.8073 4.79688 13.5 4.79688C13.2188 4.79688 12.9714 4.82812 12.7578 4.89062C12.5495 4.94792 12.3776 5.02865 12.2422 5.13281C12.1068 5.22656 12.0052 5.33854 11.9375 5.46875C11.8698 5.59375 11.8359 5.72656 11.8359 5.86719C11.8359 6.01302 11.8646 6.14583 11.9219 6.26562C11.9792 6.38021 12.0807 6.48177 12.2266 6.57031C12.362 6.66406 12.5495 6.75 12.7891 6.82812C13.0339 6.90625 13.3411 6.97656 13.7109 7.03906C14.2266 7.13281 14.6979 7.2474 15.125 7.38281C15.5521 7.51823 15.9167 7.6849 16.2188 7.88281C16.5208 8.09115 16.7552 8.33594 16.9219 8.61719C17.0885 8.89844 17.1719 9.23177 17.1719 9.61719C17.1719 9.99219 17.0833 10.3359 16.9062 10.6484C16.7344 10.9609 16.4896 11.2292 16.1719 11.4531C15.849 11.6771 15.4635 11.8516 15.0156 11.9766C14.5677 12.1016 14.0703 12.1641 13.5234 12.1641C12.9141 12.1641 12.3724 12.0833 11.8984 11.9219C11.4297 11.7604 11.0365 11.5469 10.7188 11.2812C10.3958 11.0208 10.151 10.7214 9.98438 10.3828C9.81771 10.0443 9.73438 9.70052 9.73438 9.35156H11.5469C11.5625 9.61198 11.6302 9.83333 11.75 10.0156C11.875 10.1927 12.0312 10.3359 12.2188 10.4453C12.401 10.5599 12.6094 10.6432 12.8438 10.6953C13.0781 10.7422 13.3151 10.7656 13.5547 10.7656C13.8776 10.7656 14.1589 10.7318 14.3984 10.6641C14.6432 10.5964 14.8385 10.5052 14.9844 10.3906C15.1042 10.2969 15.1927 10.1953 15.25 10.0859C15.3125 9.97135 15.3438 9.84635 15.3438 9.71094ZM23.375 12.1562C22.75 12.1562 22.1771 12.0521 21.6562 11.8438C21.1406 11.6354 20.6979 11.3464 20.3281 10.9766C19.9583 10.612 19.6719 10.1823 19.4688 9.6875C19.2708 9.1875 19.1719 8.64844 19.1719 8.07031V7.75C19.1719 7.08854 19.276 6.48958 19.4844 5.95312C19.6927 5.41667 19.9792 4.95833 20.3438 4.57812C20.7083 4.19792 21.1302 3.90625 21.6094 3.70312C22.0938 3.49479 22.6094 3.39062 23.1562 3.39062C23.7656 3.39062 24.3047 3.49479 24.7734 3.70312C25.2422 3.90625 25.6354 4.1901 25.9531 4.55469C26.2708 4.92448 26.5104 5.36458 26.6719 5.875C26.8333 6.38542 26.9141 6.94271 26.9141 7.54688V8.35156H21.0547V8.39062C21.112 8.76042 21.2005 9.07031 21.3203 9.32031C21.4401 9.57031 21.6042 9.79427 21.8125 9.99219C22.0208 10.2005 22.2656 10.362 22.5469 10.4766C22.8333 10.5911 23.1458 10.6484 23.4844 10.6484C23.9479 10.6484 24.3802 10.5599 24.7812 10.3828C25.1823 10.2005 25.513 9.94271 25.7734 9.60938L26.7734 10.5781C26.4922 10.9844 26.0599 11.349 25.4766 11.6719C24.8984 11.9948 24.1979 12.1562 23.375 12.1562ZM23.1484 4.90625C22.8828 4.90625 22.6354 4.95573 22.4062 5.05469C22.1823 5.14844 21.9818 5.28385 21.8047 5.46094C21.6276 5.64323 21.4792 5.86198 21.3594 6.11719C21.2396 6.3724 21.151 6.66146 21.0938 6.98438H25.0703V6.85938C25.0703 6.61458 25.026 6.3724 24.9375 6.13281C24.849 5.88802 24.724 5.67448 24.5625 5.49219C24.4062 5.3151 24.2083 5.17448 23.9688 5.07031C23.7344 4.96094 23.4609 4.90625 23.1484 4.90625ZM32.7188 10.6562C32.9531 10.6562 33.1771 10.6224 33.3906 10.5547C33.6094 10.4818 33.8021 10.3802 33.9688 10.25C34.1302 10.1198 34.2578 9.96615 34.3516 9.78906C34.4505 9.61198 34.5 9.41667 34.5 9.20312H36.2578C36.263 9.61458 36.1693 10.0026 35.9766 10.3672C35.7891 10.7266 35.5339 11.0365 35.2109 11.2969C34.8828 11.5677 34.5052 11.7812 34.0781 11.9375C33.6562 12.0885 33.2109 12.1641 32.7422 12.1641C32.0911 12.1641 31.5208 12.0521 31.0312 11.8281C30.5469 11.599 30.1432 11.2917 29.8203 10.9062C29.4922 10.5208 29.2448 10.0729 29.0781 9.5625C28.9115 9.04688 28.8281 8.4974 28.8281 7.91406V7.64062C28.8281 7.0625 28.9089 6.51562 29.0703 6C29.237 5.48438 29.4844 5.03385 29.8125 4.64844C30.1406 4.26302 30.5469 3.95833 31.0312 3.73438C31.5208 3.50521 32.0885 3.39062 32.7344 3.39062C33.2448 3.39062 33.7161 3.46875 34.1484 3.625C34.5859 3.78125 34.9609 4 35.2734 4.28125C35.5859 4.5625 35.8281 4.89844 36 5.28906C36.1771 5.67969 36.263 6.10938 36.2578 6.57812H34.5C34.5 6.34896 34.4557 6.13281 34.3672 5.92969C34.2839 5.72656 34.1641 5.54948 34.0078 5.39844C33.8464 5.2474 33.6536 5.1276 33.4297 5.03906C33.2109 4.95052 32.974 4.90625 32.7188 4.90625C32.3281 4.90625 32.0026 4.98698 31.7422 5.14844C31.487 5.30469 31.2839 5.51042 31.1328 5.76562C30.9714 6.02083 30.8568 6.3125 30.7891 6.64062C30.7266 6.96875 30.6953 7.30208 30.6953 7.64062V7.91406C30.6953 8.25781 30.7266 8.59635 30.7891 8.92969C30.8568 9.25781 30.9688 9.54688 31.125 9.79688C31.276 10.0573 31.4818 10.2656 31.7422 10.4219C32.0026 10.5781 32.3281 10.6562 32.7188 10.6562ZM42.3984 1.48438V3.54688H45.5781V4.94531H42.3984V8.98438C42.3984 9.29688 42.4349 9.5599 42.5078 9.77344C42.5859 9.98177 42.6927 10.1458 42.8281 10.2656C42.9635 10.3906 43.125 10.4792 43.3125 10.5312C43.5 10.5833 43.7057 10.6094 43.9297 10.6094C44.0911 10.6094 44.2578 10.6016 44.4297 10.5859C44.6016 10.5703 44.7682 10.5495 44.9297 10.5234C45.0859 10.5026 45.2318 10.4792 45.3672 10.4531C45.5078 10.4219 45.625 10.3958 45.7188 10.375L45.9219 11.6641C45.7865 11.7474 45.6224 11.8203 45.4297 11.8828C45.2422 11.9401 45.0391 11.9896 44.8203 12.0312C44.6016 12.0729 44.3724 12.1042 44.1328 12.125C43.8984 12.151 43.6641 12.1641 43.4297 12.1641C43.0026 12.1641 42.6094 12.1068 42.25 11.9922C41.8958 11.8724 41.5911 11.6875 41.3359 11.4375C41.0807 11.1927 40.8802 10.8776 40.7344 10.4922C40.5938 10.1068 40.5234 9.64323 40.5234 9.10156V4.94531H38.4766V3.54688H40.5234V1.48438H42.3984ZM48.6875 3.54688H53.1719V10.4531H55.6562V12H48.6875V10.4531H51.2891V5.10156H48.6875V3.54688ZM51.1172 1.35938C51.1172 1.20833 51.1432 1.07031 51.1953 0.945312C51.2474 0.815104 51.3229 0.703125 51.4219 0.609375C51.5156 0.520833 51.6276 0.453125 51.7578 0.40625C51.8932 0.354167 52.0443 0.328125 52.2109 0.328125C52.4922 0.328125 52.7188 0.401042 52.8906 0.546875C53.0677 0.6875 53.1693 0.869792 53.1953 1.09375C53.2318 1.32292 53.1927 1.52344 53.0781 1.69531C52.9635 1.86198 52.7969 1.97396 52.5781 2.03125C52.4688 2.13021 52.3385 2.19531 52.1875 2.22656C52.0365 2.25781 51.8698 2.24479 51.6875 2.1875C51.5 2.13021 51.3568 2.02865 51.2578 1.88281C51.1641 1.73177 51.1172 1.55729 51.1172 1.35938ZM57.5234 7.69531C57.5234 7.08073 57.612 6.51302 57.7891 5.99219C57.9661 5.46615 58.224 5.01042 58.5625 4.625C58.8958 4.23958 59.3047 3.9375 59.7891 3.71875C60.2734 3.5 60.8255 3.39062 61.4453 3.39062C62.0651 3.39062 62.6172 3.5 63.1016 3.71875C63.5911 3.9375 64.0052 4.23958 64.3438 4.625C64.6771 5.01042 64.9323 5.46615 65.1094 5.99219C65.2865 6.51302 65.375 7.08073 65.375 7.69531V7.85938C65.375 8.47917 65.2865 9.04948 65.1094 9.57031C64.9323 10.0911 64.6771 10.5443 64.3438 10.9297C64.0104 11.3151 63.599 11.6172 63.1094 11.8359C62.625 12.0547 62.0755 12.1641 61.4609 12.1641C60.8411 12.1641 60.2865 12.0547 59.7969 11.8359C59.3073 11.6172 58.8958 11.3151 58.5625 10.9297C58.224 10.5443 57.9661 10.0911 57.7891 9.57031C57.612 9.04948 57.5234 8.47917 57.5234 7.85938V7.69531ZM59.3906 7.85938C59.3906 8.23958 59.4297 8.59896 59.5078 8.9375C59.5911 9.27604 59.7188 9.57292 59.8906 9.82812C60.0573 10.0833 60.2708 10.2865 60.5312 10.4375C60.7917 10.5833 61.1016 10.6562 61.4609 10.6562C61.8099 10.6562 62.1146 10.5833 62.375 10.4375C62.6354 10.2865 62.849 10.0833 63.0156 9.82812C63.1823 9.57292 63.3047 9.27604 63.3828 8.9375C63.4661 8.59896 63.5078 8.23958 63.5078 7.85938V7.69531C63.5078 7.32552 63.4661 6.97135 63.3828 6.63281C63.2995 6.29427 63.1771 5.9974 63.0156 5.74219C62.8438 5.48698 62.6276 5.28385 62.3672 5.13281C62.112 4.98177 61.8047 4.90625 61.4453 4.90625C61.0911 4.90625 60.7839 4.98177 60.5234 5.13281C60.2682 5.28385 60.0573 5.48698 59.8906 5.74219C59.7188 5.9974 59.5911 6.29427 59.5078 6.63281C59.4297 6.97135 59.3906 7.32552 59.3906 7.69531V7.85938ZM67.4766 12V3.54688H69.1641L69.2812 4.75C69.3958 4.58854 69.5208 4.4401 69.6562 4.30469C69.7969 4.16406 69.9453 4.03906 70.1016 3.92969C70.3516 3.75781 70.625 3.625 70.9219 3.53125C71.2188 3.4375 71.5312 3.39062 71.8594 3.39062C72.2917 3.39062 72.6875 3.45312 73.0469 3.57812C73.4062 3.70312 73.7135 3.90104 73.9688 4.17188C74.224 4.44271 74.4219 4.78906 74.5625 5.21094C74.7031 5.6276 74.7734 6.13281 74.7734 6.72656V12H72.9062V6.75781C72.9062 6.40885 72.8672 6.11719 72.7891 5.88281C72.7109 5.64844 72.5964 5.46094 72.4453 5.32031C72.2943 5.17969 72.112 5.08073 71.8984 5.02344C71.6849 4.96094 71.4401 4.92969 71.1641 4.92969C70.9349 4.92969 70.7214 4.96094 70.5234 5.02344C70.3255 5.08073 70.1458 5.16406 69.9844 5.27344C69.8594 5.35677 69.7422 5.45833 69.6328 5.57812C69.5234 5.69792 69.4271 5.82812 69.3438 5.96875V12H67.4766ZM28.7891 28.7109C28.7891 28.0703 28.8646 27.487 29.0156 26.9609C29.1719 26.4297 29.3958 25.974 29.6875 25.5938C29.974 25.2135 30.3229 24.9193 30.7344 24.7109C31.151 24.4974 31.6198 24.3906 32.1406 24.3906C32.6094 24.3906 33.0182 24.474 33.3672 24.6406C33.7214 24.8021 34.0339 25.0339 34.3047 25.3359V21H36.1719V33H34.4766L34.3906 32.1172C34.1198 32.4505 33.7969 32.7083 33.4219 32.8906C33.0469 33.0677 32.6146 33.1562 32.125 33.1562C31.6094 33.1562 31.1458 33.0495 30.7344 32.8359C30.3229 32.6172 29.974 32.3151 29.6875 31.9297C29.401 31.5495 29.1797 31.099 29.0234 30.5781C28.8672 30.0521 28.7891 29.4844 28.7891 28.875V28.7109ZM30.6562 28.875C30.6562 29.25 30.6927 29.6042 30.7656 29.9375C30.8385 30.2708 30.9531 30.5599 31.1094 30.8047C31.2656 31.0599 31.4661 31.2604 31.7109 31.4062C31.9557 31.5469 32.25 31.6172 32.5938 31.6172C33.0156 31.6172 33.3646 31.526 33.6406 31.3438C33.9167 31.1562 34.138 30.9036 34.3047 30.5859V26.9531C34.138 26.6406 33.9167 26.3932 33.6406 26.2109C33.3698 26.0234 33.026 25.9297 32.6094 25.9297C32.2604 25.9297 31.9609 26.0026 31.7109 26.1484C31.4661 26.2943 31.2682 26.4948 31.1172 26.75C30.9557 27.0052 30.8385 27.3021 30.7656 27.6406C30.6927 27.974 30.6562 28.3307 30.6562 28.7109V28.875ZM39.0781 24.5469H43.5625V31.4531H46.0469V33H39.0781V31.4531H41.6797V26.1016H39.0781V24.5469ZM41.5078 22.3594C41.5078 22.2083 41.5339 22.0703 41.5859 21.9453C41.638 21.8151 41.7135 21.7031 41.8125 21.6094C41.9062 21.5208 42.0182 21.4531 42.1484 21.4062C42.2839 21.3542 42.4349 21.3281 42.6016 21.3281C42.8828 21.3281 43.1094 21.401 43.2812 21.5469C43.4583 21.6875 43.5599 21.8698 43.5859 22.0938C43.6224 22.3229 43.5833 22.5234 43.4688 22.6953C43.3542 22.862 43.1875 22.974 42.9688 23.0312C42.8594 23.1302 42.7292 23.1953 42.5781 23.2266C42.4271 23.2578 42.2604 23.2448 42.0781 23.1875C41.8906 23.1302 41.7474 23.0286 41.6484 22.8828C41.5547 22.7318 41.5078 22.5573 41.5078 22.3594ZM51.0234 33L47.6953 24.5469H49.6328L51.7266 30.6797L51.8516 31.2422L51.9766 30.6797L54.0469 24.5469H55.9844L52.6719 33H51.0234ZM38.3984 49.7109C38.3984 49.0703 38.474 48.487 38.625 47.9609C38.7812 47.4297 39.0052 46.974 39.2969 46.5938C39.5833 46.2135 39.9323 45.9193 40.3438 45.7109C40.7604 45.4974 41.2292 45.3906 41.75 45.3906C42.2188 45.3906 42.6276 45.474 42.9766 45.6406C43.3307 45.8021 43.6432 46.0339 43.9141 46.3359V42H45.7812V54H44.0859L44 53.1172C43.7292 53.4505 43.4062 53.7083 43.0312 53.8906C42.6562 54.0677 42.224 54.1562 41.7344 54.1562C41.2188 54.1562 40.7552 54.0495 40.3438 53.8359C39.9323 53.6172 39.5833 53.3151 39.2969 52.9297C39.0104 52.5495 38.7891 52.099 38.6328 51.5781C38.4766 51.0521 38.3984 50.4844 38.3984 49.875V49.7109ZM40.2656 49.875C40.2656 50.25 40.3021 50.6042 40.375 50.9375C40.4479 51.2708 40.5625 51.5599 40.7188 51.8047C40.875 52.0599 41.0755 52.2604 41.3203 52.4062C41.5651 52.5469 41.8594 52.6172 42.2031 52.6172C42.625 52.6172 42.974 52.526 43.25 52.3438C43.526 52.1562 43.7474 51.9036 43.9141 51.5859V47.9531C43.7474 47.6406 43.526 47.3932 43.25 47.2109C42.9792 47.0234 42.6354 46.9297 42.2188 46.9297C41.8698 46.9297 41.5703 47.0026 41.3203 47.1484C41.0755 47.2943 40.8776 47.4948 40.7266 47.75C40.5651 48.0052 40.4479 48.3021 40.375 48.6406C40.3021 48.974 40.2656 49.3307 40.2656 49.7109V49.875ZM48.6875 45.5469H53.1719V52.4531H55.6562V54H48.6875V52.4531H51.2891V47.1016H48.6875V45.5469ZM51.1172 43.3594C51.1172 43.2083 51.1432 43.0703 51.1953 42.9453C51.2474 42.8151 51.3229 42.7031 51.4219 42.6094C51.5156 42.5208 51.6276 42.4531 51.7578 42.4062C51.8932 42.3542 52.0443 42.3281 52.2109 42.3281C52.4922 42.3281 52.7188 42.401 52.8906 42.5469C53.0677 42.6875 53.1693 42.8698 53.1953 43.0938C53.2318 43.3229 53.1927 43.5234 53.0781 43.6953C52.9635 43.862 52.7969 43.974 52.5781 44.0312C52.4688 44.1302 52.3385 44.1953 52.1875 44.2266C52.0365 44.2578 51.8698 44.2448 51.6875 44.1875C51.5 44.1302 51.3568 44.0286 51.2578 43.8828C51.1641 43.7318 51.1172 43.5573 51.1172 43.3594ZM60.6328 54L57.3047 45.5469H59.2422L61.3359 51.6797L61.4609 52.2422L61.5859 51.6797L63.6562 45.5469H65.5938L62.2812 54H60.6328ZM24.9531 72.7109C24.9531 72.5651 24.9193 72.4349 24.8516 72.3203C24.7891 72.2057 24.6823 72.0964 24.5312 71.9922C24.3698 71.8984 24.1589 71.8099 23.8984 71.7266C23.638 71.6432 23.3125 71.5651 22.9219 71.4922C22.4323 71.3932 21.9844 71.2708 21.5781 71.125C21.1771 70.9792 20.8307 70.8021 20.5391 70.5938C20.2526 70.3958 20.0286 70.1615 19.8672 69.8906C19.7057 69.6198 19.625 69.3047 19.625 68.9453C19.625 68.6016 19.7057 68.276 19.8672 67.9688C20.0339 67.6562 20.2708 67.3828 20.5781 67.1484C20.8802 66.9141 21.2448 66.7292 21.6719 66.5938C22.1042 66.4583 22.5833 66.3906 23.1094 66.3906C23.6719 66.3906 24.1771 66.4609 24.625 66.6016C25.0729 66.737 25.4531 66.9245 25.7656 67.1641C26.0729 67.4036 26.3099 67.6875 26.4766 68.0156C26.6432 68.3438 26.7266 68.6979 26.7266 69.0781H24.8594C24.8594 68.9219 24.8255 68.7734 24.7578 68.6328C24.6953 68.487 24.6016 68.3568 24.4766 68.2422C24.3307 68.1068 24.1432 68 23.9141 67.9219C23.6849 67.8385 23.4167 67.7969 23.1094 67.7969C22.8281 67.7969 22.5807 67.8281 22.3672 67.8906C22.1589 67.9479 21.987 68.0286 21.8516 68.1328C21.7161 68.2266 21.6146 68.3385 21.5469 68.4688C21.4792 68.5938 21.4453 68.7266 21.4453 68.8672C21.4453 69.013 21.474 69.1458 21.5312 69.2656C21.5885 69.3802 21.6901 69.4818 21.8359 69.5703C21.9714 69.6641 22.1589 69.75 22.3984 69.8281C22.6432 69.9062 22.9505 69.9766 23.3203 70.0391C23.8359 70.1328 24.3073 70.2474 24.7344 70.3828C25.1615 70.5182 25.526 70.6849 25.8281 70.8828C26.1302 71.0911 26.3646 71.3359 26.5312 71.6172C26.6979 71.8984 26.7812 72.2318 26.7812 72.6172C26.7812 72.9922 26.6927 73.3359 26.5156 73.6484C26.3438 73.9609 26.099 74.2292 25.7812 74.4531C25.4583 74.6771 25.0729 74.8516 24.625 74.9766C24.1771 75.1016 23.6797 75.1641 23.1328 75.1641C22.5234 75.1641 21.9818 75.0833 21.5078 74.9219C21.0391 74.7604 20.6458 74.5469 20.3281 74.2812C20.0052 74.0208 19.7604 73.7214 19.5938 73.3828C19.4271 73.0443 19.3438 72.7005 19.3438 72.3516H21.1562C21.1719 72.612 21.2396 72.8333 21.3594 73.0156C21.4844 73.1927 21.6406 73.3359 21.8281 73.4453C22.0104 73.5599 22.2188 73.6432 22.4531 73.6953C22.6875 73.7422 22.9245 73.7656 23.1641 73.7656C23.487 73.7656 23.7682 73.7318 24.0078 73.6641C24.2526 73.5964 24.4479 73.5052 24.5938 73.3906C24.7135 73.2969 24.8021 73.1953 24.8594 73.0859C24.9219 72.9714 24.9531 72.8464 24.9531 72.7109ZM32.9844 75.1562C32.3594 75.1562 31.7865 75.0521 31.2656 74.8438C30.75 74.6354 30.3073 74.3464 29.9375 73.9766C29.5677 73.612 29.2812 73.1823 29.0781 72.6875C28.8802 72.1875 28.7812 71.6484 28.7812 71.0703V70.75C28.7812 70.0885 28.8854 69.4896 29.0938 68.9531C29.3021 68.4167 29.5885 67.9583 29.9531 67.5781C30.3177 67.1979 30.7396 66.9062 31.2188 66.7031C31.7031 66.4948 32.2188 66.3906 32.7656 66.3906C33.375 66.3906 33.9141 66.4948 34.3828 66.7031C34.8516 66.9062 35.2448 67.1901 35.5625 67.5547C35.8802 67.9245 36.1198 68.3646 36.2812 68.875C36.4427 69.3854 36.5234 69.9427 36.5234 70.5469V71.3516H30.6641V71.3906C30.7214 71.7604 30.8099 72.0703 30.9297 72.3203C31.0495 72.5703 31.2135 72.7943 31.4219 72.9922C31.6302 73.2005 31.875 73.362 32.1562 73.4766C32.4427 73.5911 32.7552 73.6484 33.0938 73.6484C33.5573 73.6484 33.9896 73.5599 34.3906 73.3828C34.7917 73.2005 35.1224 72.9427 35.3828 72.6094L36.3828 73.5781C36.1016 73.9844 35.6693 74.349 35.0859 74.6719C34.5078 74.9948 33.8073 75.1562 32.9844 75.1562ZM32.7578 67.9062C32.4922 67.9062 32.2448 67.9557 32.0156 68.0547C31.7917 68.1484 31.5911 68.2839 31.4141 68.4609C31.237 68.6432 31.0885 68.862 30.9688 69.1172C30.849 69.3724 30.7604 69.6615 30.7031 69.9844H34.6797V69.8594C34.6797 69.6146 34.6354 69.3724 34.5469 69.1328C34.4583 68.888 34.3333 68.6745 34.1719 68.4922C34.0156 68.3151 33.8177 68.1745 33.5781 68.0703C33.3438 67.9609 33.0703 67.9062 32.7578 67.9062ZM42.3281 73.6562C42.5625 73.6562 42.7865 73.6224 43 73.5547C43.2188 73.4818 43.4115 73.3802 43.5781 73.25C43.7396 73.1198 43.8672 72.9661 43.9609 72.7891C44.0599 72.612 44.1094 72.4167 44.1094 72.2031H45.8672C45.8724 72.6146 45.7786 73.0026 45.5859 73.3672C45.3984 73.7266 45.1432 74.0365 44.8203 74.2969C44.4922 74.5677 44.1146 74.7812 43.6875 74.9375C43.2656 75.0885 42.8203 75.1641 42.3516 75.1641C41.7005 75.1641 41.1302 75.0521 40.6406 74.8281C40.1562 74.599 39.7526 74.2917 39.4297 73.9062C39.1016 73.5208 38.8542 73.0729 38.6875 72.5625C38.5208 72.0469 38.4375 71.4974 38.4375 70.9141V70.6406C38.4375 70.0625 38.5182 69.5156 38.6797 69C38.8464 68.4844 39.0938 68.0339 39.4219 67.6484C39.75 67.263 40.1562 66.9583 40.6406 66.7344C41.1302 66.5052 41.6979 66.3906 42.3438 66.3906C42.8542 66.3906 43.3255 66.4688 43.7578 66.625C44.1953 66.7812 44.5703 67 44.8828 67.2812C45.1953 67.5625 45.4375 67.8984 45.6094 68.2891C45.7865 68.6797 45.8724 69.1094 45.8672 69.5781H44.1094C44.1094 69.349 44.0651 69.1328 43.9766 68.9297C43.8932 68.7266 43.7734 68.5495 43.6172 68.3984C43.4557 68.2474 43.263 68.1276 43.0391 68.0391C42.8203 67.9505 42.5833 67.9062 42.3281 67.9062C41.9375 67.9062 41.612 67.987 41.3516 68.1484C41.0964 68.3047 40.8932 68.5104 40.7422 68.7656C40.5807 69.0208 40.4661 69.3125 40.3984 69.6406C40.3359 69.9688 40.3047 70.3021 40.3047 70.6406V70.9141C40.3047 71.2578 40.3359 71.5964 40.3984 71.9297C40.4661 72.2578 40.5781 72.5469 40.7344 72.7969C40.8854 73.0573 41.0911 73.2656 41.3516 73.4219C41.612 73.5781 41.9375 73.6562 42.3281 73.6562ZM52.0078 64.4844V66.5469H55.1875V67.9453H52.0078V71.9844C52.0078 72.2969 52.0443 72.5599 52.1172 72.7734C52.1953 72.9818 52.3021 73.1458 52.4375 73.2656C52.5729 73.3906 52.7344 73.4792 52.9219 73.5312C53.1094 73.5833 53.3151 73.6094 53.5391 73.6094C53.7005 73.6094 53.8672 73.6016 54.0391 73.5859C54.2109 73.5703 54.3776 73.5495 54.5391 73.5234C54.6953 73.5026 54.8411 73.4792 54.9766 73.4531C55.1172 73.4219 55.2344 73.3958 55.3281 73.375L55.5312 74.6641C55.3958 74.7474 55.2318 74.8203 55.0391 74.8828C54.8516 74.9401 54.6484 74.9896 54.4297 75.0312C54.2109 75.0729 53.9818 75.1042 53.7422 75.125C53.5078 75.151 53.2734 75.1641 53.0391 75.1641C52.612 75.1641 52.2188 75.1068 51.8594 74.9922C51.5052 74.8724 51.2005 74.6875 50.9453 74.4375C50.6901 74.1927 50.4896 73.8776 50.3438 73.4922C50.2031 73.1068 50.1328 72.6432 50.1328 72.1016V67.9453H48.0859V66.5469H50.1328V64.4844H52.0078ZM58.2969 66.5469H62.7812V73.4531H65.2656V75H58.2969V73.4531H60.8984V68.1016H58.2969V66.5469ZM60.7266 64.3594C60.7266 64.2083 60.7526 64.0703 60.8047 63.9453C60.8568 63.8151 60.9323 63.7031 61.0312 63.6094C61.125 63.5208 61.237 63.4531 61.3672 63.4062C61.5026 63.3542 61.6536 63.3281 61.8203 63.3281C62.1016 63.3281 62.3281 63.401 62.5 63.5469C62.6771 63.6875 62.7786 63.8698 62.8047 64.0938C62.8411 64.3229 62.8021 64.5234 62.6875 64.6953C62.5729 64.862 62.4062 64.974 62.1875 65.0312C62.0781 65.1302 61.9479 65.1953 61.7969 65.2266C61.6458 65.2578 61.4792 65.2448 61.2969 65.1875C61.1094 65.1302 60.9661 65.0286 60.8672 64.8828C60.7734 64.7318 60.7266 64.5573 60.7266 64.3594ZM67.1328 70.6953C67.1328 70.0807 67.2214 69.513 67.3984 68.9922C67.5755 68.4661 67.8333 68.0104 68.1719 67.625C68.5052 67.2396 68.9141 66.9375 69.3984 66.7188C69.8828 66.5 70.4349 66.3906 71.0547 66.3906C71.6745 66.3906 72.2266 66.5 72.7109 66.7188C73.2005 66.9375 73.6146 67.2396 73.9531 67.625C74.2865 68.0104 74.5417 68.4661 74.7188 68.9922C74.8958 69.513 74.9844 70.0807 74.9844 70.6953V70.8594C74.9844 71.4792 74.8958 72.0495 74.7188 72.5703C74.5417 73.0911 74.2865 73.5443 73.9531 73.9297C73.6198 74.3151 73.2083 74.6172 72.7188 74.8359C72.2344 75.0547 71.6849 75.1641 71.0703 75.1641C70.4505 75.1641 69.8958 75.0547 69.4062 74.8359C68.9167 74.6172 68.5052 74.3151 68.1719 73.9297C67.8333 73.5443 67.5755 73.0911 67.3984 72.5703C67.2214 72.0495 67.1328 71.4792 67.1328 70.8594V70.6953ZM69 70.8594C69 71.2396 69.0391 71.599 69.1172 71.9375C69.2005 72.276 69.3281 72.5729 69.5 72.8281C69.6667 73.0833 69.8802 73.2865 70.1406 73.4375C70.401 73.5833 70.7109 73.6562 71.0703 73.6562C71.4193 73.6562 71.724 73.5833 71.9844 73.4375C72.2448 73.2865 72.4583 73.0833 72.625 72.8281C72.7917 72.5729 72.9141 72.276 72.9922 71.9375C73.0755 71.599 73.1172 71.2396 73.1172 70.8594V70.6953C73.1172 70.3255 73.0755 69.9714 72.9922 69.6328C72.9089 69.2943 72.7865 68.9974 72.625 68.7422C72.4531 68.487 72.237 68.2839 71.9766 68.1328C71.7214 67.9818 71.4141 67.9062 71.0547 67.9062C70.7005 67.9062 70.3932 67.9818 70.1328 68.1328C69.8776 68.2839 69.6667 68.487 69.5 68.7422C69.3281 68.9974 69.2005 69.2943 69.1172 69.6328C69.0391 69.9714 69 70.3255 69 70.6953V70.8594ZM77.0859 75V66.5469H78.7734L78.8906 67.75C79.0052 67.5885 79.1302 67.4401 79.2656 67.3047C79.4062 67.1641 79.5547 67.0391 79.7109 66.9297C79.9609 66.7578 80.2344 66.625 80.5312 66.5312C80.8281 66.4375 81.1406 66.3906 81.4688 66.3906C81.901 66.3906 82.2969 66.4531 82.6562 66.5781C83.0156 66.7031 83.3229 66.901 83.5781 67.1719C83.8333 67.4427 84.0312 67.7891 84.1719 68.2109C84.3125 68.6276 84.3828 69.1328 84.3828 69.7266V75H82.5156V69.7578C82.5156 69.4089 82.4766 69.1172 82.3984 68.8828C82.3203 68.6484 82.2057 68.4609 82.0547 68.3203C81.9036 68.1797 81.7214 68.0807 81.5078 68.0234C81.2943 67.9609 81.0495 67.9297 80.7734 67.9297C80.5443 67.9297 80.3307 67.9609 80.1328 68.0234C79.9349 68.0807 79.7552 68.1641 79.5938 68.2734C79.4688 68.3568 79.3516 68.4583 79.2422 68.5781C79.1328 68.6979 79.0365 68.8281 78.9531 68.9688V75H77.0859Z"
        fill="#F78C6C" 
    />
</svg>