<svg width="39" height="39" viewBox="0 0 39 39" fill="none" xmlns="http://www.w3.org/2000/svg">
<path fill-rule="evenodd" clip-rule="evenodd" d="M13.75 5.5C14.3639 5.5 14.9034 5.90697 15.0721 6.49726L16.563 11.7153C17.2155 13.9992 19.0008 15.7845 21.2847 16.437L26.5027 17.9279C27.093 18.0966 27.5 18.6361 27.5 19.25C27.5 19.8639 27.093 20.4034 26.5027 20.5721L21.2847 22.063C19.0008 22.7155 17.2155 24.5008 16.563 26.7847L15.0721 32.0027C14.9034 32.593 14.3639 33 13.75 33C13.1361 33 12.5966 32.593 12.4279 32.0027L10.937 26.7847C10.2845 24.5008 8.4992 22.7155 6.21527 22.063L0.997258 20.5721C0.406969 20.4034 0 19.8639 0 19.25C0 18.6361 0.406969 18.0966 0.997258 17.9279L6.21527 16.437C8.4992 15.7845 10.2845 13.9992 10.937 11.7153L12.4279 6.49726C12.5966 5.90697 13.1361 5.5 13.75 5.5Z" fill="white"/>
<path fill-rule="evenodd" clip-rule="evenodd" d="M30.25 0C30.8809 0 31.4309 0.429409 31.5839 1.04151L32.0585 2.93986C32.4896 4.66411 33.8359 6.01041 35.5601 6.44147L37.4585 6.91605C38.0706 7.06908 38.5 7.61906 38.5 8.25C38.5 8.88094 38.0706 9.43092 37.4585 9.58395L35.5601 10.0585C33.8359 10.4896 32.4896 11.8359 32.0585 13.5601L31.5839 15.4585C31.4309 16.0706 30.8809 16.5 30.25 16.5C29.6191 16.5 29.0691 16.0706 28.9161 15.4585L28.4415 13.5601C28.0104 11.8359 26.6641 10.4896 24.9399 10.0585L23.0415 9.58395C22.4294 9.43092 22 8.88094 22 8.25C22 7.61906 22.4294 7.06908 23.0415 6.91605L24.9399 6.44147C26.6641 6.01041 28.0104 4.66411 28.4415 2.93986L28.9161 1.04151C29.0691 0.429409 29.6191 0 30.25 0Z" fill="white"/>
<path fill-rule="evenodd" clip-rule="evenodd" d="M27.5 24.75C28.0918 24.75 28.6173 25.1287 28.8044 25.6902L29.5272 27.8585C29.8009 28.6797 30.4453 29.3241 31.2665 29.5978L33.4348 30.3206C33.9963 30.5077 34.375 31.0332 34.375 31.625C34.375 32.2168 33.9963 32.7423 33.4348 32.9294L31.2665 33.6522C30.4453 33.9259 29.8009 34.5703 29.5272 35.3915L28.8044 37.5598C28.6173 38.1213 28.0918 38.5 27.5 38.5C26.9082 38.5 26.3827 38.1213 26.1956 37.5598L25.4728 35.3915C25.1991 34.5703 24.5547 33.9259 23.7335 33.6522L21.5652 32.9294C21.0037 32.7423 20.625 32.2168 20.625 31.625C20.625 31.0332 21.0037 30.5077 21.5652 30.3206L23.7335 29.5978C24.5547 29.3241 25.1991 28.6797 25.4728 27.8585L26.1956 25.6902C26.3827 25.1287 26.9082 24.75 27.5 24.75Z" fill="white"/>
</svg>
