<svg width="48" height="49" viewBox="0 0 48 49" fill="none" xmlns="http://www.w3.org/2000/svg">
<path d="M24 42.45L21.95 40.6C18.4243 37.3627 15.5097 34.57 13.206 32.222C10.902 29.874 9.06667 27.775 7.7 25.925C6.33333 24.075 5.375 22.4 4.825 20.9C4.275 19.4 4 17.8834 4 16.35C4 13.345 5.00833 10.8354 7.025 8.82105C9.04167 6.80705 11.5333 5.80005 14.5 5.80005C16.4 5.80005 18.1583 6.25005 19.775 7.15005C21.3917 8.05005 22.8 9.35005 24 11.05C25.4 9.25005 26.8833 7.92505 28.45 7.07505C30.0167 6.22505 31.7 5.80005 33.5 5.80005C36.4667 5.80005 38.9583 6.80705 40.975 8.82105C42.9917 10.8354 44 13.345 44 16.35C44 17.8834 43.725 19.4 43.175 20.9C42.625 22.4 41.6667 24.075 40.3 25.925C38.9333 27.775 37.098 29.874 34.794 32.222C32.4903 34.57 29.5757 37.3627 26.05 40.6L24 42.45ZM24 38.5C27.3747 35.4 30.1517 32.7417 32.331 30.525C34.5103 28.3084 36.2417 26.3667 37.525 24.7C38.8083 23.0334 39.7083 21.5477 40.225 20.243C40.7417 18.9387 41 17.6434 41 16.357C41 14.1524 40.3 12.3417 38.9 10.925C37.5 9.50838 35.7037 8.80005 33.511 8.80005C31.7937 8.80005 30.2042 9.32505 28.7425 10.375C27.2808 11.425 26.1 12.9 25.2 14.8H22.75C21.8833 12.9334 20.7192 11.4667 19.2575 10.4C17.7958 9.33338 16.2063 8.80005 14.489 8.80005C12.2963 8.80005 10.5 9.50838 9.1 10.925C7.7 12.3417 7 14.1554 7 16.366C7 17.6554 7.25833 18.9584 7.775 20.275C8.29167 21.5917 9.19167 23.0917 10.475 24.775C11.7583 26.4584 13.5 28.4 15.7 30.6C17.9 32.8 20.6667 35.4334 24 38.5Z" fill="white"/>
</svg>
