<svg width="34" height="34" viewBox="0 0 34 34" fill="none" xmlns="http://www.w3.org/2000/svg">
<path d="M8.97932 9.77441H15.8168C16.1795 9.77441 16.5273 9.91849 16.7838 10.1749C17.0402 10.4314 17.1843 10.7792 17.1843 11.1419C17.1843 11.5046 17.0402 11.8524 16.7838 12.1089C16.5273 12.3653 16.1795 12.5094 15.8168 12.5094H8.97932C8.61663 12.5094 8.2688 12.3653 8.01235 12.1089C7.75589 11.8524 7.61182 11.5046 7.61182 11.1419C7.61182 10.7792 7.75589 10.4314 8.01235 10.1749C8.2688 9.91849 8.61663 9.77441 8.97932 9.77441ZM18.5518 20.7144H25.3893C25.752 20.7144 26.0998 20.8585 26.3563 21.1149C26.6127 21.3714 26.7568 21.7192 26.7568 22.0819C26.7568 22.4446 26.6127 22.7924 26.3563 23.0489C26.0998 23.3053 25.752 23.4494 25.3893 23.4494H18.5518C18.1891 23.4494 17.8413 23.3053 17.5848 23.0489C17.3284 22.7924 17.1843 22.4446 17.1843 22.0819C17.1843 21.7192 17.3284 21.3714 17.5848 21.1149C17.8413 20.8585 18.1891 20.7144 18.5518 20.7144ZM8.97932 15.2444H25.3893C25.752 15.2444 26.0998 15.3885 26.3563 15.6449C26.6127 15.9014 26.7568 16.2492 26.7568 16.6119C26.7568 16.9746 26.6127 17.3224 26.3563 17.5789C26.0998 17.8353 25.752 17.9794 25.3893 17.9794H8.97932C8.61663 17.9794 8.2688 17.8353 8.01235 17.5789C7.75589 17.3224 7.61182 16.9746 7.61182 16.6119C7.61182 16.2492 7.75589 15.9014 8.01235 15.6449C8.2688 15.3885 8.61663 15.2444 8.97932 15.2444Z" fill="white"/>
</svg>
